<?xml version="1.0" encoding="UTF-8" standalone="no"?>
<!DOCTYPE svg PUBLIC "-//W3C//DTD SVG 1.1//EN"
 "http://www.w3.org/Graphics/SVG/1.1/DTD/svg11.dtd">
<!-- Generated by graphviz version 2.44.1 (20200629.0846)
 -->
<!-- Title: dfa Pages: 1 -->
<svg width="2000pt" height="598pt"
 viewBox="0.00 0.00 2000.35 598.00" xmlns="http://www.w3.org/2000/svg" xmlns:xlink="http://www.w3.org/1999/xlink">
<g id="graph0" class="graph" transform="scale(1 1) rotate(0) translate(4 594)">
<title>dfa</title>
<polygon fill="white" stroke="transparent" points="-4,4 -4,-594 1996.35,-594 1996.35,4 -4,4"/>
<!-- ExpectMajor -->
<g id="node1" class="node">
<title>ExpectMajor</title>
<ellipse fill="none" stroke="black" cx="50" cy="-91" rx="41.95" ry="41.95"/>
<text text-anchor="middle" x="50" y="-87.3" font-family="Times,serif" font-size="14.00">ExpectMajor</text>
</g>
<!-- ExpectMajor&#45;&gt;ExpectMajor -->
<g id="edge27" class="edge">
<title>ExpectMajor&#45;&gt;ExpectMajor</title>
<path fill="none" stroke="black" d="M35.79,-130.51C36.28,-142.04 41.02,-150.97 50,-150.97 56.17,-150.97 60.34,-146.75 62.5,-140.37"/>
<polygon fill="black" stroke="black" points="65.95,-140.96 64.21,-130.51 59.05,-139.77 65.95,-140.96"/>
<text text-anchor="middle" x="50" y="-154.77" font-family="JetBrains Mono,Fira Code,Monospace" font-size="14.00">&lt;whitespace&gt;</text>
</g>
<!-- ParseMajor -->
<g id="node2" class="node">
<title>ParseMajor</title>
<ellipse fill="none" stroke="#0000cd" cx="371.03" cy="-103" rx="37.38" ry="37.38"/>
<ellipse fill="none" stroke="#0000cd" cx="371.03" cy="-103" rx="41.37" ry="41.37"/>
<text text-anchor="middle" x="371.03" y="-99.3" font-family="Times,serif" font-size="14.00">ParseMajor</text>
</g>
<!-- ExpectMajor&#45;&gt;ParseMajor -->
<g id="edge25" class="edge">
<title>ExpectMajor&#45;&gt;ParseMajor</title>
<path fill="none" stroke="black" d="M91.75,-96.93C112.68,-99.68 138.64,-102.64 161.97,-104 215.61,-107.13 277.15,-106.29 319.31,-105.03"/>
<polygon fill="black" stroke="black" points="319.44,-108.53 329.33,-104.71 319.22,-101.53 319.44,-108.53"/>
<text text-anchor="middle" x="206.79" y="-110.8" font-family="JetBrains Mono,Fira Code,Monospace" font-size="14.00">[0&#45;9]</text>
</g>
<!-- RequireMajor -->
<g id="node11" class="node">
<title>RequireMajor</title>
<ellipse fill="none" stroke="black" cx="206.79" cy="-50" rx="44.62" ry="44.62"/>
<text text-anchor="middle" x="206.79" y="-46.3" font-family="Times,serif" font-size="14.00">RequireMajor</text>
</g>
<!-- ExpectMajor&#45;&gt;RequireMajor -->
<g id="edge26" class="edge">
<title>ExpectMajor&#45;&gt;RequireMajor</title>
<path fill="none" stroke="black" d="M90.86,-80.44C109.95,-75.38 133.06,-69.26 153.54,-63.84"/>
<polygon fill="black" stroke="black" points="154.58,-67.18 163.35,-61.24 152.79,-60.42 154.58,-67.18"/>
<text text-anchor="middle" x="126.97" y="-79.8" font-family="JetBrains Mono,Fira Code,Monospace" font-size="14.00">[vV]</text>
</g>
<!-- ParseMajor&#45;&gt;ParseMajor -->
<g id="edge11" class="edge">
<title>ParseMajor&#45;&gt;ParseMajor</title>
<path fill="none" stroke="black" d="M357.96,-142.44C358.47,-153.73 362.83,-162.44 371.03,-162.44 376.55,-162.44 380.32,-158.51 382.36,-152.5"/>
<polygon fill="black" stroke="black" points="385.85,-152.89 384.11,-142.44 378.95,-151.69 385.85,-152.89"/>
<text text-anchor="middle" x="371.03" y="-166.24" font-family="JetBrains Mono,Fira Code,Monospace" font-size="14.00">[0&#45;9]</text>
</g>
<!-- ExpectMinor -->
<g id="node5" class="node">
<title>ExpectMinor</title>
<ellipse fill="none" stroke="black" cx="516.01" cy="-103" rx="42.58" ry="42.58"/>
<text text-anchor="middle" x="516.01" y="-99.3" font-family="Times,serif" font-size="14.00">ExpectMinor</text>
</g>
<!-- ParseMajor&#45;&gt;ExpectMinor -->
<g id="edge9" class="edge">
<title>ParseMajor&#45;&gt;ExpectMinor</title>
<path fill="none" stroke="#00cd00" stroke-width="1.7" d="M412.62,-103C428.35,-103 446.54,-103 463.2,-103"/>
<polygon fill="#00cd00" stroke="#00cd00" stroke-width="1.7" points="463.33,-106.5 473.33,-103 463.33,-99.5 463.33,-106.5"/>
<text text-anchor="middle" x="442.97" y="-106.8" font-family="JetBrains Mono,Fira Code,Monospace" font-size="14.00" fill="#008b00">[.]</text>
</g>
<!-- ExpectBuild -->
<g id="node7" class="node">
<title>ExpectBuild</title>
<ellipse fill="none" stroke="black" cx="1715.47" cy="-435" rx="39.91" ry="39.91"/>
<text text-anchor="middle" x="1715.47" y="-431.3" font-family="Times,serif" font-size="14.00">ExpectBuild</text>
</g>
<!-- ParseMajor&#45;&gt;ExpectBuild -->
<g id="edge10" class="edge">
<title>ParseMajor&#45;&gt;ExpectBuild</title>
<path fill="none" stroke="#00cd00" stroke-width="1.7" d="M375.63,-144.47C386.77,-259.65 425.43,-575 515.01,-575 515.01,-575 515.01,-575 1500.4,-575 1575.58,-575 1598.32,-559.01 1657.77,-513 1670.03,-503.51 1680.84,-490.67 1689.65,-478.16"/>
<polygon fill="#00cd00" stroke="#00cd00" stroke-width="1.7" points="1692.73,-479.84 1695.42,-469.59 1686.93,-475.93 1692.73,-479.84"/>
<text text-anchor="middle" x="977.01" y="-578.8" font-family="JetBrains Mono,Fira Code,Monospace" font-size="14.00" fill="#008b00">[+]</text>
</g>
<!-- ExpectPre -->
<g id="node8" class="node">
<title>ExpectPre</title>
<ellipse fill="none" stroke="black" cx="1715.47" cy="-261" rx="32.8" ry="32.8"/>
<text text-anchor="middle" x="1715.47" y="-257.3" font-family="Times,serif" font-size="14.00">ExpectPre</text>
</g>
<!-- ParseMajor&#45;&gt;ExpectPre -->
<g id="edge12" class="edge">
<title>ParseMajor&#45;&gt;ExpectPre</title>
<path fill="none" stroke="#00cd00" stroke-width="1.7" d="M396.87,-70.13C422.72,-39.98 466.22,0 515.01,0 515.01,0 515.01,0 1500.4,0 1612.63,0 1676.74,-146.04 1701.92,-219.64"/>
<polygon fill="#00cd00" stroke="#00cd00" stroke-width="1.7" points="1698.73,-221.14 1705.22,-229.52 1705.37,-218.92 1698.73,-221.14"/>
<text text-anchor="middle" x="977.01" y="-3.8" font-family="JetBrains Mono,Fira Code,Monospace" font-size="14.00" fill="#008b00">[&#45;]</text>
</g>
<!-- ExpectAdd -->
<g id="node3" class="node">
<title>ExpectAdd</title>
<ellipse fill="none" stroke="black" cx="1154.91" cy="-245" rx="35.97" ry="35.97"/>
<text text-anchor="middle" x="1154.91" y="-241.3" font-family="Times,serif" font-size="14.00">ExpectAdd</text>
</g>
<!-- ParseAdd -->
<g id="node4" class="node">
<title>ParseAdd</title>
<ellipse fill="none" stroke="#0000cd" cx="1328.85" cy="-280" rx="31.37" ry="31.37"/>
<ellipse fill="none" stroke="#0000cd" cx="1328.85" cy="-280" rx="35.4" ry="35.4"/>
<text text-anchor="middle" x="1328.85" y="-276.3" font-family="Times,serif" font-size="14.00">ParseAdd</text>
</g>
<!-- ExpectAdd&#45;&gt;ParseAdd -->
<g id="edge13" class="edge">
<title>ExpectAdd&#45;&gt;ParseAdd</title>
<path fill="none" stroke="black" d="M1189.2,-255.85C1195.62,-257.73 1202.31,-259.54 1208.65,-261 1233.26,-266.67 1261.12,-271.21 1283.72,-274.43"/>
<polygon fill="black" stroke="black" points="1283.31,-277.91 1293.7,-275.82 1284.27,-270.97 1283.31,-277.91"/>
<text text-anchor="middle" x="1242.15" y="-275.8" font-family="JetBrains Mono,Fira Code,Monospace" font-size="14.00">[0&#45;9]</text>
</g>
<!-- ParsePre -->
<g id="node6" class="node">
<title>ParsePre</title>
<ellipse fill="none" stroke="#0000cd" cx="1499.4" cy="-179" rx="28.24" ry="28.24"/>
<ellipse fill="none" stroke="#0000cd" cx="1499.4" cy="-179" rx="32.22" ry="32.22"/>
<text text-anchor="middle" x="1499.4" y="-175.3" font-family="Times,serif" font-size="14.00">ParsePre</text>
</g>
<!-- ExpectAdd&#45;&gt;ParsePre -->
<g id="edge14" class="edge">
<title>ExpectAdd&#45;&gt;ParsePre</title>
<path fill="none" stroke="black" d="M1189.94,-237.81C1196.16,-236.52 1202.59,-235.21 1208.65,-234 1297.29,-216.34 1401.45,-196.89 1457.58,-186.51"/>
<polygon fill="black" stroke="black" points="1458.3,-189.94 1467.49,-184.68 1457.02,-183.05 1458.3,-189.94"/>
<text text-anchor="middle" x="1328.85" y="-219.8" font-family="JetBrains Mono,Fira Code,Monospace" font-size="14.00">[a&#45;zA&#45;Z]</text>
</g>
<!-- ParseAdd&#45;&gt;ExpectAdd -->
<g id="edge6" class="edge">
<title>ParseAdd&#45;&gt;ExpectAdd</title>
<path fill="none" stroke="#00cd00" stroke-width="1.7" d="M1300.87,-258.31C1293.16,-253.29 1284.45,-248.65 1275.65,-246 1251.57,-238.74 1223.51,-238.12 1200.61,-239.48"/>
<polygon fill="#00cd00" stroke="#00cd00" stroke-width="1.7" points="1200.2,-236 1190.48,-240.23 1200.72,-242.98 1200.2,-236"/>
<text text-anchor="middle" x="1242.15" y="-249.8" font-family="JetBrains Mono,Fira Code,Monospace" font-size="14.00" fill="#008b00">[.]</text>
</g>
<!-- ParseAdd&#45;&gt;ParseAdd -->
<g id="edge7" class="edge">
<title>ParseAdd&#45;&gt;ParseAdd</title>
<path fill="none" stroke="black" d="M1312.77,-311.41C1312.15,-323.34 1317.51,-333.2 1328.85,-333.2 1336.64,-333.2 1341.61,-328.54 1343.75,-321.75"/>
<polygon fill="black" stroke="black" points="1347.28,-321.74 1344.92,-311.41 1340.32,-320.95 1347.28,-321.74"/>
<text text-anchor="middle" x="1328.85" y="-337" font-family="JetBrains Mono,Fira Code,Monospace" font-size="14.00">[0&#45;9]</text>
</g>
<!-- ParseAdd&#45;&gt;ParsePre -->
<g id="edge5" class="edge">
<title>ParseAdd&#45;&gt;ParsePre</title>
<path fill="none" stroke="black" d="M1359.53,-262.5C1366.79,-258.5 1374.61,-254.43 1382.04,-251 1410.91,-237.69 1422.1,-242.86 1449.04,-226 1456.1,-221.59 1463,-216.05 1469.3,-210.35"/>
<polygon fill="black" stroke="black" points="1472.09,-212.52 1476.93,-203.1 1467.27,-207.45 1472.09,-212.52"/>
<text text-anchor="middle" x="1415.54" y="-254.8" font-family="JetBrains Mono,Fira Code,Monospace" font-size="14.00">[a&#45;zA&#45;Z]</text>
</g>
<!-- ParseAdd&#45;&gt;ExpectBuild -->
<g id="edge4" class="edge">
<title>ParseAdd&#45;&gt;ExpectBuild</title>
<path fill="none" stroke="#00cd00" stroke-width="1.7" d="M1360.64,-295.75C1402.7,-316.93 1480.78,-355.02 1549.77,-382 1588.68,-397.22 1633.94,-411.55 1667.15,-421.46"/>
<polygon fill="#00cd00" stroke="#00cd00" stroke-width="1.7" points="1666.47,-424.91 1677.06,-424.39 1668.46,-418.2 1666.47,-424.91"/>
<text text-anchor="middle" x="1499.4" y="-376.8" font-family="JetBrains Mono,Fira Code,Monospace" font-size="14.00" fill="#008b00">[+]</text>
</g>
<!-- ParseAdd&#45;&gt;ExpectPre -->
<g id="edge8" class="edge">
<title>ParseAdd&#45;&gt;ExpectPre</title>
<path fill="none" stroke="#00cd00" stroke-width="1.7" d="M1364.32,-278.3C1434.85,-274.81 1595.43,-266.88 1672.14,-263.09"/>
<polygon fill="#00cd00" stroke="#00cd00" stroke-width="1.7" points="1672.58,-266.57 1682.39,-262.58 1672.23,-259.58 1672.58,-266.57"/>
<text text-anchor="middle" x="1499.4" y="-276.8" font-family="JetBrains Mono,Fira Code,Monospace" font-size="14.00" fill="#008b00">[&#45;]</text>
</g>
<!-- ExpectMinor&#45;&gt;ParsePre -->
<g id="edge15" class="edge">
<title>ExpectMinor&#45;&gt;ParsePre</title>
<path fill="none" stroke="black" d="M554.05,-83.64C585.79,-68.85 633.19,-51 676.99,-51 676.99,-51 676.99,-51 1329.85,-51 1391.68,-51 1445.05,-106.3 1474.37,-144.21"/>
<polygon fill="black" stroke="black" points="1471.79,-146.6 1480.6,-152.48 1477.38,-142.39 1471.79,-146.6"/>
<text text-anchor="middle" x="977.01" y="-54.8" font-family="JetBrains Mono,Fira Code,Monospace" font-size="14.00">[a&#45;zA&#45;Z]</text>
</g>
<!-- ParseMinor -->
<g id="node9" class="node">
<title>ParseMinor</title>
<ellipse fill="none" stroke="#0000cd" cx="677.99" cy="-185" rx="37.38" ry="37.38"/>
<ellipse fill="none" stroke="#0000cd" cx="677.99" cy="-185" rx="41.37" ry="41.37"/>
<text text-anchor="middle" x="677.99" y="-181.3" font-family="Times,serif" font-size="14.00">ParseMinor</text>
</g>
<!-- ExpectMinor&#45;&gt;ParseMinor -->
<g id="edge16" class="edge">
<title>ExpectMinor&#45;&gt;ParseMinor</title>
<path fill="none" stroke="black" d="M554.12,-122.02C577.2,-133.85 607.04,-149.15 631.54,-161.7"/>
<polygon fill="black" stroke="black" points="630.14,-164.92 640.64,-166.37 633.34,-158.69 630.14,-164.92"/>
<text text-anchor="middle" x="597.56" y="-156.8" font-family="JetBrains Mono,Fira Code,Monospace" font-size="14.00">[0&#45;9]</text>
</g>
<!-- ParsePre&#45;&gt;ParsePre -->
<g id="edge29" class="edge">
<title>ParsePre&#45;&gt;ParsePre</title>
<path fill="none" stroke="black" d="M1484.14,-207.73C1483.19,-219.46 1488.27,-229.36 1499.4,-229.36 1507.06,-229.36 1511.85,-224.68 1513.79,-217.95"/>
<polygon fill="black" stroke="black" points="1517.3,-217.99 1514.67,-207.73 1510.33,-217.39 1517.3,-217.99"/>
<text text-anchor="middle" x="1499.4" y="-233.16" font-family="JetBrains Mono,Fira Code,Monospace" font-size="14.00">[0&#45;9][a&#45;zA&#45;Z]</text>
</g>
<!-- ParsePre&#45;&gt;ExpectBuild -->
<g id="edge30" class="edge">
<title>ParsePre&#45;&gt;ExpectBuild</title>
<path fill="none" stroke="#00cd00" stroke-width="1.7" d="M1514.91,-207.48C1523.94,-224.08 1536.37,-245.02 1549.77,-262 1591.23,-314.56 1612.27,-317.89 1657.77,-367 1666.42,-376.34 1675.41,-386.76 1683.62,-396.58"/>
<polygon fill="#00cd00" stroke="#00cd00" stroke-width="1.7" points="1680.93,-398.82 1690.01,-404.29 1686.33,-394.36 1680.93,-398.82"/>
<text text-anchor="middle" x="1603.77" y="-370.8" font-family="JetBrains Mono,Fira Code,Monospace" font-size="14.00" fill="#008b00">[+]</text>
</g>
<!-- ParsePre&#45;&gt;ExpectPre -->
<g id="edge28" class="edge">
<title>ParsePre&#45;&gt;ExpectPre</title>
<path fill="none" stroke="#00cd00" stroke-width="1.7" d="M1527.64,-195.02C1534.72,-198.88 1542.42,-202.8 1549.77,-206 1590.83,-223.92 1639.73,-239.57 1673.53,-249.55"/>
<polygon fill="#00cd00" stroke="#00cd00" stroke-width="1.7" points="1672.92,-253.02 1683.5,-252.46 1674.88,-246.3 1672.92,-253.02"/>
<text text-anchor="middle" x="1603.77" y="-246.8" font-family="JetBrains Mono,Fira Code,Monospace" font-size="14.00" fill="#008b00">[.][&#45;]</text>
</g>
<!-- ParseBuild -->
<g id="node10" class="node">
<title>ParseBuild</title>
<ellipse fill="none" stroke="#0000cd" cx="1938.35" cy="-435" rx="35.32" ry="35.32"/>
<ellipse fill="none" stroke="#0000cd" cx="1938.35" cy="-435" rx="39.34" ry="39.34"/>
<text text-anchor="middle" x="1938.35" y="-431.3" font-family="Times,serif" font-size="14.00">ParseBuild</text>
</g>
<!-- ExpectBuild&#45;&gt;ParseBuild -->
<g id="edge19" class="edge">
<title>ExpectBuild&#45;&gt;ParseBuild</title>
<path fill="none" stroke="black" d="M1755.2,-435C1792.42,-435 1848.78,-435 1888.94,-435"/>
<polygon fill="black" stroke="black" points="1889.04,-438.5 1899.04,-435 1889.04,-431.5 1889.04,-438.5"/>
<text text-anchor="middle" x="1827.18" y="-438.8" font-family="JetBrains Mono,Fira Code,Monospace" font-size="14.00">[0&#45;9][a&#45;zA&#45;Z]</text>
</g>
<!-- ExpectPre&#45;&gt;ParsePre -->
<g id="edge36" class="edge">
<title>ExpectPre&#45;&gt;ParsePre</title>
<path fill="none" stroke="black" d="M1700.1,-231.61C1690.5,-215.43 1676.25,-196.71 1657.77,-187 1621.93,-168.17 1574.94,-168.43 1541.67,-172.01"/>
<polygon fill="black" stroke="black" points="1540.88,-168.58 1531.38,-173.27 1541.73,-175.53 1540.88,-168.58"/>
<text text-anchor="middle" x="1603.77" y="-190.8" font-family="JetBrains Mono,Fira Code,Monospace" font-size="14.00">[0&#45;9][a&#45;zA&#45;Z]</text>
</g>
<!-- ParseMinor&#45;&gt;ParsePre -->
<g id="edge31" class="edge">
<title>ParseMinor&#45;&gt;ParsePre</title>
<path fill="none" stroke="black" d="M713.69,-163.41C732.65,-152.89 756.98,-141.37 780.43,-136 814.83,-128.13 824.56,-135.13 859.84,-136 1121.95,-142.45 1190.32,-122.51 1449.04,-165 1452.11,-165.5 1455.26,-166.13 1458.4,-166.84"/>
<polygon fill="black" stroke="black" points="1457.82,-170.3 1468.37,-169.31 1459.51,-163.5 1457.82,-170.3"/>
<text text-anchor="middle" x="1067.68" y="-140.8" font-family="JetBrains Mono,Fira Code,Monospace" font-size="14.00">[a&#45;zA&#45;Z]</text>
</g>
<!-- ParseMinor&#45;&gt;ExpectBuild -->
<g id="edge32" class="edge">
<title>ParseMinor&#45;&gt;ExpectBuild</title>
<path fill="none" stroke="#00cd00" stroke-width="1.7" d="M679.6,-226.71C682.17,-283.37 693.18,-386.09 737.43,-460 761.84,-500.78 771.61,-529 819.14,-529 819.14,-529 819.14,-529 1500.4,-529 1565.77,-529 1633.61,-491.8 1674.95,-464.2"/>
<polygon fill="#00cd00" stroke="#00cd00" stroke-width="1.7" points="1677.06,-467 1683.35,-458.48 1673.12,-461.21 1677.06,-467"/>
<text text-anchor="middle" x="1154.91" y="-532.8" font-family="JetBrains Mono,Fira Code,Monospace" font-size="14.00" fill="#008b00">[+]</text>
</g>
<!-- ParseMinor&#45;&gt;ExpectPre -->
<g id="edge35" class="edge">
<title>ParseMinor&#45;&gt;ExpectPre</title>
<path fill="none" stroke="#00cd00" stroke-width="1.7" d="M680.32,-226.67C685.36,-307.56 709.04,-478 819.14,-478 819.14,-478 819.14,-478 1500.4,-478 1581.42,-478 1603.51,-446.16 1657.77,-386 1679.35,-362.07 1693.95,-328.54 1702.93,-302.24"/>
<polygon fill="#00cd00" stroke="#00cd00" stroke-width="1.7" points="1706.32,-303.13 1706.09,-292.54 1699.66,-300.96 1706.32,-303.13"/>
<text text-anchor="middle" x="1154.91" y="-481.8" font-family="JetBrains Mono,Fira Code,Monospace" font-size="14.00" fill="#008b00">[&#45;]</text>
</g>
<!-- ParseMinor&#45;&gt;ParseMinor -->
<g id="edge34" class="edge">
<title>ParseMinor&#45;&gt;ParseMinor</title>
<path fill="none" stroke="black" d="M664.92,-224.44C665.43,-235.73 669.79,-244.44 677.99,-244.44 683.5,-244.44 687.28,-240.51 689.32,-234.5"/>
<polygon fill="black" stroke="black" points="692.8,-234.89 691.07,-224.44 685.91,-233.69 692.8,-234.89"/>
<text text-anchor="middle" x="677.99" y="-248.24" font-family="JetBrains Mono,Fira Code,Monospace" font-size="14.00">[0&#45;9]</text>
</g>
<!-- ExpectPatch -->
<g id="node12" class="node">
<title>ExpectPatch</title>
<ellipse fill="none" stroke="black" cx="820.14" cy="-185" rx="39.91" ry="39.91"/>
<text text-anchor="middle" x="820.14" y="-181.3" font-family="Times,serif" font-size="14.00">ExpectPatch</text>
</g>
<!-- ParseMinor&#45;&gt;ExpectPatch -->
<g id="edge33" class="edge">
<title>ParseMinor&#45;&gt;ExpectPatch</title>
<path fill="none" stroke="#00cd00" stroke-width="1.7" d="M719.53,-185C735.33,-185 753.58,-185 770.11,-185"/>
<polygon fill="#00cd00" stroke="#00cd00" stroke-width="1.7" points="770.14,-188.5 780.14,-185 770.14,-181.5 770.14,-188.5"/>
<text text-anchor="middle" x="749.93" y="-188.8" font-family="JetBrains Mono,Fira Code,Monospace" font-size="14.00" fill="#008b00">[.]</text>
</g>
<!-- ParseBuild&#45;&gt;ExpectBuild -->
<g id="edge2" class="edge">
<title>ParseBuild&#45;&gt;ExpectBuild</title>
<path fill="none" stroke="#00cd00" stroke-width="1.7" d="M1901.49,-421.7C1894.82,-419.75 1887.86,-418.04 1881.18,-417 1833.75,-409.59 1820.61,-409.65 1773.18,-417 1769.76,-417.53 1766.26,-418.23 1762.77,-419.05"/>
<polygon fill="#00cd00" stroke="#00cd00" stroke-width="1.7" points="1761.77,-415.69 1752.99,-421.61 1763.55,-422.46 1761.77,-415.69"/>
<text text-anchor="middle" x="1827.18" y="-420.8" font-family="JetBrains Mono,Fira Code,Monospace" font-size="14.00" fill="#008b00">[.][&#45;]</text>
</g>
<!-- ParseBuild&#45;&gt;ParseBuild -->
<g id="edge1" class="edge">
<title>ParseBuild&#45;&gt;ParseBuild</title>
<path fill="none" stroke="black" d="M1917.8,-468.47C1916.89,-481.41 1923.74,-492.17 1938.35,-492.17 1948.85,-492.17 1955.34,-486.61 1957.82,-478.68"/>
<polygon fill="black" stroke="black" points="1961.33,-478.78 1958.89,-468.47 1954.37,-478.05 1961.33,-478.78"/>
<text text-anchor="middle" x="1938.35" y="-495.97" font-family="JetBrains Mono,Fira Code,Monospace" font-size="14.00">[0&#45;9][a&#45;zA&#45;Z]</text>
</g>
<!-- RequireMajor&#45;&gt;ParseMajor -->
<g id="edge3" class="edge">
<title>RequireMajor&#45;&gt;ParseMajor</title>
<path fill="none" stroke="black" d="M249.57,-63.65C271.67,-70.87 298.91,-79.77 321.89,-87.27"/>
<polygon fill="black" stroke="black" points="320.86,-90.62 331.45,-90.4 323.03,-83.97 320.86,-90.62"/>
<text text-anchor="middle" x="290.6" y="-86.8" font-family="JetBrains Mono,Fira Code,Monospace" font-size="14.00">[0&#45;9]</text>
</g>
<!-- ExpectPatch&#45;&gt;ParsePre -->
<g id="edge18" class="edge">
<title>ExpectPatch&#45;&gt;ParsePre</title>
<path fill="none" stroke="black" d="M859.77,-181.97C958.19,-174.76 1226.29,-158.21 1449.04,-173 1451.61,-173.17 1454.24,-173.38 1456.89,-173.62"/>
<polygon fill="black" stroke="black" points="1456.81,-177.13 1467.12,-174.67 1457.53,-170.17 1456.81,-177.13"/>
<text text-anchor="middle" x="1154.91" y="-171.8" font-family="JetBrains Mono,Fira Code,Monospace" font-size="14.00">[a&#45;zA&#45;Z]</text>
</g>
<!-- ParsePatch -->
<g id="node13" class="node">
<title>ParsePatch</title>
<ellipse fill="none" stroke="#0000cd" cx="977.01" cy="-245" rx="35.32" ry="35.32"/>
<ellipse fill="none" stroke="#0000cd" cx="977.01" cy="-245" rx="39.34" ry="39.34"/>
<text text-anchor="middle" x="977.01" y="-241.3" font-family="Times,serif" font-size="14.00">ParsePatch</text>
</g>
<!-- ExpectPatch&#45;&gt;ParsePatch -->
<g id="edge17" class="edge">
<title>ExpectPatch&#45;&gt;ParsePatch</title>
<path fill="none" stroke="black" d="M857.45,-199.07C879.37,-207.56 907.49,-218.45 930.84,-227.5"/>
<polygon fill="black" stroke="black" points="929.6,-230.78 940.19,-231.12 932.13,-224.25 929.6,-230.78"/>
<text text-anchor="middle" x="898.84" y="-225.8" font-family="JetBrains Mono,Fira Code,Monospace" font-size="14.00">[0&#45;9]</text>
</g>
<!-- ParsePatch&#45;&gt;ExpectAdd -->
<g id="edge22" class="edge">
<title>ParsePatch&#45;&gt;ExpectAdd</title>
<path fill="none" stroke="#00cd00" stroke-width="1.7" d="M1016.18,-245C1043.45,-245 1080.23,-245 1108.93,-245"/>
<polygon fill="#00cd00" stroke="#00cd00" stroke-width="1.7" points="1109.1,-248.5 1119.1,-245 1109.1,-241.5 1109.1,-248.5"/>
<text text-anchor="middle" x="1067.68" y="-248.8" font-family="JetBrains Mono,Fira Code,Monospace" font-size="14.00" fill="#008b00">[.]</text>
</g>
<!-- ParsePatch&#45;&gt;ParsePre -->
<g id="edge20" class="edge">
<title>ParsePatch&#45;&gt;ParsePre</title>
<path fill="none" stroke="black" d="M1013.64,-230.93C1041.81,-220.47 1082.39,-206.87 1119.18,-200 1240.02,-177.43 1385.97,-176.59 1456.38,-177.81"/>
<polygon fill="black" stroke="black" points="1456.54,-181.31 1466.61,-178.01 1456.68,-174.31 1456.54,-181.31"/>
<text text-anchor="middle" x="1242.15" y="-190.8" font-family="JetBrains Mono,Fira Code,Monospace" font-size="14.00">[a&#45;zA&#45;Z]</text>
</g>
<!-- ParsePatch&#45;&gt;ExpectBuild -->
<g id="edge24" class="edge">
<title>ParsePatch&#45;&gt;ExpectBuild</title>
<path fill="none" stroke="#00cd00" stroke-width="1.7" d="M1003.9,-273.94C1012.86,-282.8 1023.38,-292.03 1034.18,-299 1068.36,-321.06 1080.71,-319.75 1119.18,-333 1303.29,-396.41 1356.62,-389.24 1549.77,-414 1588.72,-418.99 1632.87,-424.62 1665.65,-428.79"/>
<polygon fill="#00cd00" stroke="#00cd00" stroke-width="1.7" points="1665.5,-432.3 1675.87,-430.09 1666.39,-425.36 1665.5,-432.3"/>
<text text-anchor="middle" x="1328.85" y="-395.8" font-family="JetBrains Mono,Fira Code,Monospace" font-size="14.00" fill="#008b00">[+]</text>
</g>
<!-- ParsePatch&#45;&gt;ExpectPre -->
<g id="edge23" class="edge">
<title>ParsePatch&#45;&gt;ExpectPre</title>
<path fill="none" stroke="#00cd00" stroke-width="1.7" d="M1012.92,-261.85C1070.01,-288.39 1187.64,-338.75 1293.65,-357 1436.24,-381.55 1603.13,-314.46 1676.55,-280"/>
<polygon fill="#00cd00" stroke="#00cd00" stroke-width="1.7" points="1678.34,-283.02 1685.86,-275.56 1675.33,-276.7 1678.34,-283.02"/>
<text text-anchor="middle" x="1328.85" y="-365.8" font-family="JetBrains Mono,Fira Code,Monospace" font-size="14.00" fill="#008b00">[&#45;]</text>
</g>
<!-- ParsePatch&#45;&gt;ParsePatch -->
<g id="edge21" class="edge">
<title>ParsePatch&#45;&gt;ParsePatch</title>
<path fill="none" stroke="black" d="M962.39,-281.56C962.62,-293.08 967.49,-302.17 977.01,-302.17 983.56,-302.17 987.9,-297.87 990.06,-291.45"/>
<polygon fill="black" stroke="black" points="993.51,-291.99 991.63,-281.56 986.6,-290.89 993.51,-291.99"/>
<text text-anchor="middle" x="977.01" y="-305.97" font-family="JetBrains Mono,Fira Code,Monospace" font-size="14.00">[0&#45;9]</text>
</g>
</g>
</svg>
