<?xml version="1.0" encoding="UTF-8" standalone="no"?>
<!DOCTYPE svg PUBLIC "-//W3C//DTD SVG 1.1//EN"
 "http://www.w3.org/Graphics/SVG/1.1/DTD/svg11.dtd">
<!-- Generated by graphviz version 2.44.1 (20200629.0846)
 -->
<!-- Title: dfa Pages: 1 -->
<svg width="2128pt" height="590pt"
 viewBox="0.00 0.00 2128.35 589.81" xmlns="http://www.w3.org/2000/svg" xmlns:xlink="http://www.w3.org/1999/xlink">
<g id="graph0" class="graph" transform="scale(1 1) rotate(0) translate(4 585.81)">
<title>dfa</title>
<polygon fill="white" stroke="transparent" points="-4,4 -4,-585.81 2124.35,-585.81 2124.35,4 -4,4"/>
<!-- ExpectPre -->
<g id="node1" class="node">
<title>ExpectPre</title>
<ellipse fill="none" stroke="black" cx="1500.54" cy="-372" rx="32.8" ry="32.8"/>
<text text-anchor="middle" x="1500.54" y="-368.3" font-family="Times,serif" font-size="14.00">ExpectPre</text>
</g>
<!-- ParsePre -->
<g id="node12" class="node">
<title>ParsePre</title>
<ellipse fill="none" stroke="#0000cd" cx="1710.4" cy="-222" rx="28.24" ry="28.24"/>
<ellipse fill="none" stroke="#0000cd" cx="1710.4" cy="-222" rx="32.22" ry="32.22"/>
<text text-anchor="middle" x="1710.4" y="-218.3" font-family="Times,serif" font-size="14.00">ParsePre</text>
</g>
<!-- ExpectPre&#45;&gt;ParsePre -->
<g id="edge36" class="edge">
<title>ExpectPre&#45;&gt;ParsePre</title>
<path fill="none" stroke="black" d="M1517.29,-343.51C1525.91,-330.47 1537.76,-315.96 1552.04,-307 1593.62,-280.93 1618.31,-309.82 1660.04,-284 1670.65,-277.44 1679.93,-267.75 1687.5,-257.98"/>
<polygon fill="black" stroke="black" points="1690.38,-259.96 1693.44,-249.81 1684.73,-255.84 1690.38,-259.96"/>
<text text-anchor="middle" x="1606.04" y="-310.8" font-family="JetBrains Mono,Fira Code,Monospace" font-size="14.00">[0&#45;9][a&#45;zA&#45;Z]</text>
</g>
<!-- ParseMinor -->
<g id="node2" class="node">
<title>ParseMinor</title>
<ellipse fill="none" stroke="#0000cd" cx="677.99" cy="-131" rx="37.38" ry="37.38"/>
<ellipse fill="none" stroke="#0000cd" cx="677.99" cy="-131" rx="41.37" ry="41.37"/>
<text text-anchor="middle" x="677.99" y="-127.3" font-family="Times,serif" font-size="14.00">ParseMinor</text>
</g>
<!-- ParseMinor&#45;&gt;ExpectPre -->
<g id="edge18" class="edge">
<title>ParseMinor&#45;&gt;ExpectPre</title>
<path fill="none" stroke="#00cd00" stroke-width="1.7" d="M681.19,-172.47C687.79,-250.19 714.11,-410 819.14,-410 819.14,-410 819.14,-410 1329.85,-410 1375.19,-410 1425.73,-396.92 1459.77,-386.11"/>
<polygon fill="#00cd00" stroke="#00cd00" stroke-width="1.7" points="1460.92,-389.42 1469.34,-382.99 1458.75,-382.76 1460.92,-389.42"/>
<text text-anchor="middle" x="1067.68" y="-413.8" font-family="JetBrains Mono,Fira Code,Monospace" font-size="14.00" fill="#008b00">[&#45;]</text>
</g>
<!-- ParseMinor&#45;&gt;ParseMinor -->
<g id="edge19" class="edge">
<title>ParseMinor&#45;&gt;ParseMinor</title>
<path fill="none" stroke="black" d="M664.92,-170.44C665.43,-181.73 669.79,-190.44 677.99,-190.44 683.5,-190.44 687.28,-186.51 689.32,-180.5"/>
<polygon fill="black" stroke="black" points="692.8,-180.89 691.07,-170.44 685.91,-179.69 692.8,-180.89"/>
<text text-anchor="middle" x="677.99" y="-194.24" font-family="JetBrains Mono,Fira Code,Monospace" font-size="14.00">[0&#45;9]</text>
</g>
<!-- ExpectBuild -->
<g id="node3" class="node">
<title>ExpectBuild</title>
<ellipse fill="none" stroke="black" cx="1843.47" cy="-222" rx="39.91" ry="39.91"/>
<text text-anchor="middle" x="1843.47" y="-218.3" font-family="Times,serif" font-size="14.00">ExpectBuild</text>
</g>
<!-- ParseMinor&#45;&gt;ExpectBuild -->
<g id="edge20" class="edge">
<title>ParseMinor&#45;&gt;ExpectBuild</title>
<path fill="none" stroke="#00cd00" stroke-width="1.7" d="M697.86,-94.51C720.82,-55.75 763.52,0 819.14,0 819.14,0 819.14,0 1711.4,0 1790.96,0 1823.22,-107.02 1835.52,-172.45"/>
<polygon fill="#00cd00" stroke="#00cd00" stroke-width="1.7" points="1832.12,-173.34 1837.32,-182.57 1839.01,-172.11 1832.12,-173.34"/>
<text text-anchor="middle" x="1242.15" y="-3.8" font-family="JetBrains Mono,Fira Code,Monospace" font-size="14.00" fill="#008b00">[+]</text>
</g>
<!-- ExpectPatch -->
<g id="node11" class="node">
<title>ExpectPatch</title>
<ellipse fill="none" stroke="black" cx="820.14" cy="-131" rx="39.91" ry="39.91"/>
<text text-anchor="middle" x="820.14" y="-127.3" font-family="Times,serif" font-size="14.00">ExpectPatch</text>
</g>
<!-- ParseMinor&#45;&gt;ExpectPatch -->
<g id="edge17" class="edge">
<title>ParseMinor&#45;&gt;ExpectPatch</title>
<path fill="none" stroke="#00cd00" stroke-width="1.7" d="M719.53,-131C735.33,-131 753.58,-131 770.11,-131"/>
<polygon fill="#00cd00" stroke="#00cd00" stroke-width="1.7" points="770.14,-134.5 780.14,-131 770.14,-127.5 770.14,-134.5"/>
<text text-anchor="middle" x="749.93" y="-134.8" font-family="JetBrains Mono,Fira Code,Monospace" font-size="14.00" fill="#008b00">[.]</text>
</g>
<!-- ParseMinor&#45;&gt;ParsePre -->
<g id="edge16" class="edge">
<title>ParseMinor&#45;&gt;ParsePre</title>
<path fill="none" stroke="black" d="M707.14,-101.27C733.5,-76.76 775.31,-46 819.14,-46 819.14,-46 819.14,-46 1416.54,-46 1531.77,-46 1572.11,-60.54 1660.04,-135 1674.89,-147.57 1686.19,-165.8 1694.21,-182.32"/>
<polygon fill="black" stroke="black" points="1691.21,-184.17 1698.56,-191.8 1697.57,-181.25 1691.21,-184.17"/>
<text text-anchor="middle" x="1154.91" y="-49.8" font-family="JetBrains Mono,Fira Code,Monospace" font-size="14.00">[a&#45;zA&#45;Z]</text>
</g>
<!-- ParseBuild -->
<g id="node7" class="node">
<title>ParseBuild</title>
<ellipse fill="none" stroke="#0000cd" cx="2066.35" cy="-222" rx="35.32" ry="35.32"/>
<ellipse fill="none" stroke="#0000cd" cx="2066.35" cy="-222" rx="39.34" ry="39.34"/>
<text text-anchor="middle" x="2066.35" y="-218.3" font-family="Times,serif" font-size="14.00">ParseBuild</text>
</g>
<!-- ExpectBuild&#45;&gt;ParseBuild -->
<g id="edge24" class="edge">
<title>ExpectBuild&#45;&gt;ParseBuild</title>
<path fill="none" stroke="black" d="M1883.2,-222C1920.42,-222 1976.78,-222 2016.94,-222"/>
<polygon fill="black" stroke="black" points="2017.04,-225.5 2027.04,-222 2017.04,-218.5 2017.04,-225.5"/>
<text text-anchor="middle" x="1955.18" y="-225.8" font-family="JetBrains Mono,Fira Code,Monospace" font-size="14.00">[0&#45;9][a&#45;zA&#45;Z]</text>
</g>
<!-- RequireMajor -->
<g id="node4" class="node">
<title>RequireMajor</title>
<ellipse fill="none" stroke="black" cx="206.79" cy="-537" rx="44.62" ry="44.62"/>
<text text-anchor="middle" x="206.79" y="-533.3" font-family="Times,serif" font-size="14.00">RequireMajor</text>
</g>
<!-- ParseMajor -->
<g id="node10" class="node">
<title>ParseMajor</title>
<ellipse fill="none" stroke="#0000cd" cx="371.03" cy="-486" rx="37.38" ry="37.38"/>
<ellipse fill="none" stroke="#0000cd" cx="371.03" cy="-486" rx="41.37" ry="41.37"/>
<text text-anchor="middle" x="371.03" y="-482.3" font-family="Times,serif" font-size="14.00">ParseMajor</text>
</g>
<!-- RequireMajor&#45;&gt;ParseMajor -->
<g id="edge4" class="edge">
<title>RequireMajor&#45;&gt;ParseMajor</title>
<path fill="none" stroke="black" d="M249.99,-523.73C271.91,-516.84 298.8,-508.39 321.57,-501.23"/>
<polygon fill="black" stroke="black" points="322.88,-504.49 331.37,-498.15 320.79,-497.81 322.88,-504.49"/>
<text text-anchor="middle" x="290.6" y="-520.8" font-family="JetBrains Mono,Fira Code,Monospace" font-size="14.00">[0&#45;9]</text>
</g>
<!-- ExpectMajor -->
<g id="node5" class="node">
<title>ExpectMajor</title>
<ellipse fill="none" stroke="black" cx="50" cy="-475" rx="41.95" ry="41.95"/>
<text text-anchor="middle" x="50" y="-471.3" font-family="Times,serif" font-size="14.00">ExpectMajor</text>
</g>
<!-- ExpectMajor&#45;&gt;RequireMajor -->
<g id="edge22" class="edge">
<title>ExpectMajor&#45;&gt;RequireMajor</title>
<path fill="none" stroke="black" d="M89.26,-490.33C109.3,-498.35 134.1,-508.28 155.65,-516.92"/>
<polygon fill="black" stroke="black" points="154.4,-520.19 164.99,-520.66 157,-513.69 154.4,-520.19"/>
<text text-anchor="middle" x="126.97" y="-514.8" font-family="JetBrains Mono,Fira Code,Monospace" font-size="14.00">[vV]</text>
</g>
<!-- ExpectMajor&#45;&gt;ExpectMajor -->
<g id="edge23" class="edge">
<title>ExpectMajor&#45;&gt;ExpectMajor</title>
<path fill="none" stroke="black" d="M35.79,-514.51C36.28,-526.04 41.02,-534.97 50,-534.97 56.17,-534.97 60.34,-530.75 62.5,-524.37"/>
<polygon fill="black" stroke="black" points="65.95,-524.96 64.21,-514.51 59.05,-523.77 65.95,-524.96"/>
<text text-anchor="middle" x="50" y="-538.77" font-family="JetBrains Mono,Fira Code,Monospace" font-size="14.00">&lt;whitespace&gt;</text>
</g>
<!-- ExpectMajor&#45;&gt;ParseMajor -->
<g id="edge21" class="edge">
<title>ExpectMajor&#45;&gt;ParseMajor</title>
<path fill="none" stroke="black" d="M92.08,-471.79C112.99,-470.31 138.82,-468.73 161.97,-468 201.79,-466.75 211.88,-465 251.6,-468 274.23,-469.71 299.09,-473.23 320.17,-476.71"/>
<polygon fill="black" stroke="black" points="319.74,-480.19 330.19,-478.41 320.91,-473.29 319.74,-480.19"/>
<text text-anchor="middle" x="206.79" y="-471.8" font-family="JetBrains Mono,Fira Code,Monospace" font-size="14.00">[0&#45;9]</text>
</g>
<!-- ParseAdd -->
<g id="node6" class="node">
<title>ParseAdd</title>
<ellipse fill="none" stroke="#0000cd" cx="1328.85" cy="-276" rx="31.37" ry="31.37"/>
<ellipse fill="none" stroke="#0000cd" cx="1328.85" cy="-276" rx="35.4" ry="35.4"/>
<text text-anchor="middle" x="1328.85" y="-272.3" font-family="Times,serif" font-size="14.00">ParseAdd</text>
</g>
<!-- ParseAdd&#45;&gt;ExpectPre -->
<g id="edge28" class="edge">
<title>ParseAdd&#45;&gt;ExpectPre</title>
<path fill="none" stroke="#00cd00" stroke-width="1.7" d="M1354.72,-300.19C1362.94,-307.27 1372.45,-314.57 1382.04,-320 1409.44,-335.52 1420.37,-329.99 1449.04,-343 1453.76,-345.14 1458.6,-347.58 1463.34,-350.12"/>
<polygon fill="#00cd00" stroke="#00cd00" stroke-width="1.7" points="1461.82,-353.28 1472.26,-355.07 1465.21,-347.16 1461.82,-353.28"/>
<text text-anchor="middle" x="1415.54" y="-346.8" font-family="JetBrains Mono,Fira Code,Monospace" font-size="14.00" fill="#008b00">[&#45;]</text>
</g>
<!-- ParseAdd&#45;&gt;ExpectBuild -->
<g id="edge30" class="edge">
<title>ParseAdd&#45;&gt;ExpectBuild</title>
<path fill="none" stroke="#00cd00" stroke-width="1.7" d="M1362.7,-286.92C1422.11,-305.26 1551.34,-338.68 1660.04,-322 1698.14,-316.15 1708.43,-313.51 1742.77,-296 1764.92,-284.71 1787.35,-268.57 1805.31,-254.24"/>
<polygon fill="#00cd00" stroke="#00cd00" stroke-width="1.7" points="1807.67,-256.83 1813.23,-247.81 1803.26,-251.4 1807.67,-256.83"/>
<text text-anchor="middle" x="1606.04" y="-329.8" font-family="JetBrains Mono,Fira Code,Monospace" font-size="14.00" fill="#008b00">[+]</text>
</g>
<!-- ParseAdd&#45;&gt;ParseAdd -->
<g id="edge31" class="edge">
<title>ParseAdd&#45;&gt;ParseAdd</title>
<path fill="none" stroke="black" d="M1312.77,-307.41C1312.15,-319.34 1317.51,-329.2 1328.85,-329.2 1336.64,-329.2 1341.61,-324.54 1343.75,-317.75"/>
<polygon fill="black" stroke="black" points="1347.28,-317.74 1344.92,-307.41 1340.32,-316.95 1347.28,-317.74"/>
<text text-anchor="middle" x="1328.85" y="-333" font-family="JetBrains Mono,Fira Code,Monospace" font-size="14.00">[0&#45;9]</text>
</g>
<!-- ExpectAdd -->
<g id="node9" class="node">
<title>ExpectAdd</title>
<ellipse fill="none" stroke="black" cx="1154.91" cy="-240" rx="35.97" ry="35.97"/>
<text text-anchor="middle" x="1154.91" y="-236.3" font-family="Times,serif" font-size="14.00">ExpectAdd</text>
</g>
<!-- ParseAdd&#45;&gt;ExpectAdd -->
<g id="edge29" class="edge">
<title>ParseAdd&#45;&gt;ExpectAdd</title>
<path fill="none" stroke="#00cd00" stroke-width="1.7" d="M1300.49,-254.87C1292.85,-250.06 1284.27,-245.61 1275.65,-243 1251.58,-235.7 1223.52,-234.63 1200.61,-235.53"/>
<polygon fill="#00cd00" stroke="#00cd00" stroke-width="1.7" points="1200.29,-232.04 1190.49,-236.07 1200.66,-239.03 1200.29,-232.04"/>
<text text-anchor="middle" x="1242.15" y="-246.8" font-family="JetBrains Mono,Fira Code,Monospace" font-size="14.00" fill="#008b00">[.]</text>
</g>
<!-- ParseAdd&#45;&gt;ParsePre -->
<g id="edge27" class="edge">
<title>ParseAdd&#45;&gt;ParsePre</title>
<path fill="none" stroke="black" d="M1363.86,-271.16C1433.64,-261.23 1592.72,-238.6 1668.2,-227.86"/>
<polygon fill="black" stroke="black" points="1668.87,-231.3 1678.28,-226.43 1667.88,-224.37 1668.87,-231.3"/>
<text text-anchor="middle" x="1500.54" y="-259.8" font-family="JetBrains Mono,Fira Code,Monospace" font-size="14.00">[a&#45;zA&#45;Z]</text>
</g>
<!-- ParseBuild&#45;&gt;ExpectBuild -->
<g id="edge10" class="edge">
<title>ParseBuild&#45;&gt;ExpectBuild</title>
<path fill="none" stroke="#00cd00" stroke-width="1.7" d="M2029.49,-208.7C2022.82,-206.75 2015.86,-205.04 2009.18,-204 1961.75,-196.59 1948.61,-196.65 1901.18,-204 1897.76,-204.53 1894.26,-205.23 1890.77,-206.05"/>
<polygon fill="#00cd00" stroke="#00cd00" stroke-width="1.7" points="1889.77,-202.69 1880.99,-208.61 1891.55,-209.46 1889.77,-202.69"/>
<text text-anchor="middle" x="1955.18" y="-207.8" font-family="JetBrains Mono,Fira Code,Monospace" font-size="14.00" fill="#008b00">[.][&#45;]</text>
</g>
<!-- ParseBuild&#45;&gt;ParseBuild -->
<g id="edge11" class="edge">
<title>ParseBuild&#45;&gt;ParseBuild</title>
<path fill="none" stroke="black" d="M2045.8,-255.47C2044.89,-268.41 2051.74,-279.17 2066.35,-279.17 2076.85,-279.17 2083.34,-273.61 2085.82,-265.68"/>
<polygon fill="black" stroke="black" points="2089.33,-265.78 2086.89,-255.47 2082.37,-265.05 2089.33,-265.78"/>
<text text-anchor="middle" x="2066.35" y="-282.97" font-family="JetBrains Mono,Fira Code,Monospace" font-size="14.00">[0&#45;9][a&#45;zA&#45;Z]</text>
</g>
<!-- ExpectMinor -->
<g id="node8" class="node">
<title>ExpectMinor</title>
<ellipse fill="none" stroke="black" cx="516.01" cy="-415" rx="42.58" ry="42.58"/>
<text text-anchor="middle" x="516.01" y="-411.3" font-family="Times,serif" font-size="14.00">ExpectMinor</text>
</g>
<!-- ExpectMinor&#45;&gt;ParseMinor -->
<g id="edge25" class="edge">
<title>ExpectMinor&#45;&gt;ParseMinor</title>
<path fill="none" stroke="black" d="M537.76,-378.16C566.99,-326.27 620.24,-231.75 651.73,-175.84"/>
<polygon fill="black" stroke="black" points="654.92,-177.31 656.78,-166.88 648.83,-173.87 654.92,-177.31"/>
<text text-anchor="middle" x="597.56" y="-309.8" font-family="JetBrains Mono,Fira Code,Monospace" font-size="14.00">[0&#45;9]</text>
</g>
<!-- ExpectMinor&#45;&gt;ParsePre -->
<g id="edge26" class="edge">
<title>ExpectMinor&#45;&gt;ParsePre</title>
<path fill="none" stroke="black" d="M556.65,-427.85C588.74,-437.12 635.3,-448 676.99,-448 676.99,-448 676.99,-448 1068.68,-448 1276.06,-448 1335.14,-472.7 1534.04,-414 1595.28,-395.93 1617.67,-392.76 1660.04,-345 1680.47,-321.98 1693.02,-289.44 1700.36,-263.61"/>
<polygon fill="black" stroke="black" points="1703.8,-264.28 1703.01,-253.72 1697.04,-262.47 1703.8,-264.28"/>
<text text-anchor="middle" x="1067.68" y="-451.8" font-family="JetBrains Mono,Fira Code,Monospace" font-size="14.00">[a&#45;zA&#45;Z]</text>
</g>
<!-- ExpectAdd&#45;&gt;ParseAdd -->
<g id="edge12" class="edge">
<title>ExpectAdd&#45;&gt;ParseAdd</title>
<path fill="none" stroke="black" d="M1187.49,-254.84C1194.34,-257.59 1201.64,-260.17 1208.65,-262 1232.95,-268.36 1260.79,-271.84 1283.45,-273.73"/>
<polygon fill="black" stroke="black" points="1283.23,-277.23 1293.47,-274.5 1283.76,-270.25 1283.23,-277.23"/>
<text text-anchor="middle" x="1242.15" y="-275.8" font-family="JetBrains Mono,Fira Code,Monospace" font-size="14.00">[0&#45;9]</text>
</g>
<!-- ExpectAdd&#45;&gt;ParsePre -->
<g id="edge13" class="edge">
<title>ExpectAdd&#45;&gt;ParsePre</title>
<path fill="none" stroke="black" d="M1190.14,-233.39C1196.28,-232.42 1202.64,-231.56 1208.65,-231 1378.39,-215.08 1581.87,-218.27 1667.83,-220.63"/>
<polygon fill="black" stroke="black" points="1667.87,-224.13 1677.97,-220.92 1668.07,-217.14 1667.87,-224.13"/>
<text text-anchor="middle" x="1415.54" y="-223.8" font-family="JetBrains Mono,Fira Code,Monospace" font-size="14.00">[a&#45;zA&#45;Z]</text>
</g>
<!-- ParseMajor&#45;&gt;ExpectPre -->
<g id="edge33" class="edge">
<title>ParseMajor&#45;&gt;ExpectPre</title>
<path fill="none" stroke="#00cd00" stroke-width="1.7" d="M412.71,-486C441.32,-486 480.51,-486 515.01,-486 515.01,-486 515.01,-486 1068.68,-486 1240.98,-486 1292.15,-482.23 1449.04,-411 1455.41,-408.11 1461.71,-404.27 1467.59,-400.13"/>
<polygon fill="#00cd00" stroke="#00cd00" stroke-width="1.7" points="1469.97,-402.72 1475.86,-393.92 1465.76,-397.12 1469.97,-402.72"/>
<text text-anchor="middle" x="898.84" y="-489.8" font-family="JetBrains Mono,Fira Code,Monospace" font-size="14.00" fill="#008b00">[&#45;]</text>
</g>
<!-- ParseMajor&#45;&gt;ExpectBuild -->
<g id="edge35" class="edge">
<title>ParseMajor&#45;&gt;ExpectBuild</title>
<path fill="none" stroke="#00cd00" stroke-width="1.7" d="M409.55,-501.68C437.98,-512.14 478.28,-524 515.01,-524 515.01,-524 515.01,-524 1711.4,-524 1820.01,-524 1839.6,-357.6 1842.48,-271.83"/>
<polygon fill="#00cd00" stroke="#00cd00" stroke-width="1.7" points="1845.98,-271.88 1842.76,-261.79 1838.99,-271.69 1845.98,-271.88"/>
<text text-anchor="middle" x="1067.68" y="-527.8" font-family="JetBrains Mono,Fira Code,Monospace" font-size="14.00" fill="#008b00">[+]</text>
</g>
<!-- ParseMajor&#45;&gt;ExpectMinor -->
<g id="edge32" class="edge">
<title>ParseMajor&#45;&gt;ExpectMinor</title>
<path fill="none" stroke="#00cd00" stroke-width="1.7" d="M408.48,-467.9C426.77,-458.82 449.12,-447.72 468.61,-438.04"/>
<polygon fill="#00cd00" stroke="#00cd00" stroke-width="1.7" points="470.23,-441.14 477.63,-433.56 467.12,-434.87 470.23,-441.14"/>
<text text-anchor="middle" x="442.97" y="-459.8" font-family="JetBrains Mono,Fira Code,Monospace" font-size="14.00" fill="#008b00">[.]</text>
</g>
<!-- ParseMajor&#45;&gt;ParseMajor -->
<g id="edge34" class="edge">
<title>ParseMajor&#45;&gt;ParseMajor</title>
<path fill="none" stroke="black" d="M357.96,-525.44C358.47,-536.73 362.83,-545.44 371.03,-545.44 376.55,-545.44 380.32,-541.51 382.36,-535.5"/>
<polygon fill="black" stroke="black" points="385.85,-535.89 384.11,-525.44 378.95,-534.69 385.85,-535.89"/>
<text text-anchor="middle" x="371.03" y="-549.24" font-family="JetBrains Mono,Fira Code,Monospace" font-size="14.00">[0&#45;9]</text>
</g>
<!-- ExpectPatch&#45;&gt;ParsePre -->
<g id="edge14" class="edge">
<title>ExpectPatch&#45;&gt;ParsePre</title>
<path fill="none" stroke="black" d="M859.73,-127.31C882.45,-125.32 911.75,-123.05 937.84,-122 1164.92,-112.84 1223.47,-106.36 1449.04,-134 1543.47,-145.57 1576.11,-125.21 1660.04,-170 1662.94,-171.54 1671.82,-180.63 1681.26,-190.79"/>
<polygon fill="black" stroke="black" points="1678.82,-193.3 1688.16,-198.29 1683.96,-188.56 1678.82,-193.3"/>
<text text-anchor="middle" x="1242.15" y="-121.8" font-family="JetBrains Mono,Fira Code,Monospace" font-size="14.00">[a&#45;zA&#45;Z]</text>
</g>
<!-- ParsePatch -->
<g id="node13" class="node">
<title>ParsePatch</title>
<ellipse fill="none" stroke="#0000cd" cx="977.01" cy="-170" rx="35.32" ry="35.32"/>
<ellipse fill="none" stroke="#0000cd" cx="977.01" cy="-170" rx="39.34" ry="39.34"/>
<text text-anchor="middle" x="977.01" y="-166.3" font-family="Times,serif" font-size="14.00">ParsePatch</text>
</g>
<!-- ExpectPatch&#45;&gt;ParsePatch -->
<g id="edge15" class="edge">
<title>ExpectPatch&#45;&gt;ParsePatch</title>
<path fill="none" stroke="black" d="M859.02,-140.54C880.07,-145.84 906.44,-152.48 928.82,-158.12"/>
<polygon fill="black" stroke="black" points="928.23,-161.58 938.78,-160.63 929.94,-154.79 928.23,-161.58"/>
<text text-anchor="middle" x="898.84" y="-158.8" font-family="JetBrains Mono,Fira Code,Monospace" font-size="14.00">[0&#45;9]</text>
</g>
<!-- ParsePre&#45;&gt;ExpectPre -->
<g id="edge1" class="edge">
<title>ParsePre&#45;&gt;ExpectPre</title>
<path fill="none" stroke="#00cd00" stroke-width="1.7" d="M1681.45,-237.04C1674.59,-240.33 1667.16,-243.55 1660.04,-246 1613.63,-261.96 1590.74,-238.82 1552.04,-269 1532.57,-284.19 1520.11,-308.83 1512.44,-330.2"/>
<polygon fill="#00cd00" stroke="#00cd00" stroke-width="1.7" points="1509.1,-329.16 1509.25,-339.75 1515.74,-331.38 1509.1,-329.16"/>
<text text-anchor="middle" x="1606.04" y="-272.8" font-family="JetBrains Mono,Fira Code,Monospace" font-size="14.00" fill="#008b00">[.][&#45;]</text>
</g>
<!-- ParsePre&#45;&gt;ExpectBuild -->
<g id="edge2" class="edge">
<title>ParsePre&#45;&gt;ExpectBuild</title>
<path fill="none" stroke="#00cd00" stroke-width="1.7" d="M1742.8,-222C1757.85,-222 1776.24,-222 1793.1,-222"/>
<polygon fill="#00cd00" stroke="#00cd00" stroke-width="1.7" points="1793.36,-225.5 1803.36,-222 1793.36,-218.5 1793.36,-225.5"/>
<text text-anchor="middle" x="1773.27" y="-225.8" font-family="JetBrains Mono,Fira Code,Monospace" font-size="14.00" fill="#008b00">[+]</text>
</g>
<!-- ParsePre&#45;&gt;ParsePre -->
<g id="edge3" class="edge">
<title>ParsePre&#45;&gt;ParsePre</title>
<path fill="none" stroke="black" d="M1698.79,-252.49C1698.54,-263.44 1702.41,-272.36 1710.4,-272.36 1715.65,-272.36 1719.12,-268.52 1720.82,-262.78"/>
<polygon fill="black" stroke="black" points="1724.33,-262.83 1722.02,-252.49 1717.38,-262.01 1724.33,-262.83"/>
<text text-anchor="middle" x="1710.4" y="-276.16" font-family="JetBrains Mono,Fira Code,Monospace" font-size="14.00">[0&#45;9][a&#45;zA&#45;Z]</text>
</g>
<!-- ParsePatch&#45;&gt;ExpectPre -->
<g id="edge9" class="edge">
<title>ParsePatch&#45;&gt;ExpectPre</title>
<path fill="none" stroke="#00cd00" stroke-width="1.7" d="M1000.91,-201.25C1010.41,-212.97 1022.04,-225.89 1034.18,-236 1067.69,-263.9 1079.86,-266.14 1119.18,-285 1194.21,-321 1212.65,-333.88 1293.65,-353 1349.21,-366.12 1415.19,-370.27 1457.21,-371.53"/>
<polygon fill="#00cd00" stroke="#00cd00" stroke-width="1.7" points="1457.27,-375.04 1467.35,-371.8 1457.45,-368.04 1457.27,-375.04"/>
<text text-anchor="middle" x="1242.15" y="-351.8" font-family="JetBrains Mono,Fira Code,Monospace" font-size="14.00" fill="#008b00">[&#45;]</text>
</g>
<!-- ParsePatch&#45;&gt;ExpectBuild -->
<g id="edge6" class="edge">
<title>ParsePatch&#45;&gt;ExpectBuild</title>
<path fill="none" stroke="#00cd00" stroke-width="1.7" d="M1015.91,-164.1C1128.94,-147.85 1472.53,-108.32 1742.77,-181 1761.2,-185.96 1780.77,-193.47 1797.65,-200.72"/>
<polygon fill="#00cd00" stroke="#00cd00" stroke-width="1.7" points="1796.68,-204.12 1807.24,-204.93 1799.49,-197.71 1796.68,-204.12"/>
<text text-anchor="middle" x="1415.54" y="-143.8" font-family="JetBrains Mono,Fira Code,Monospace" font-size="14.00" fill="#008b00">[+]</text>
</g>
<!-- ParsePatch&#45;&gt;ExpectAdd -->
<g id="edge8" class="edge">
<title>ParsePatch&#45;&gt;ExpectAdd</title>
<path fill="none" stroke="#00cd00" stroke-width="1.7" d="M1013.61,-184.17C1042.05,-195.48 1081.98,-211.37 1111.97,-223.31"/>
<polygon fill="#00cd00" stroke="#00cd00" stroke-width="1.7" points="1110.75,-226.59 1121.34,-227.04 1113.34,-220.09 1110.75,-226.59"/>
<text text-anchor="middle" x="1067.68" y="-220.8" font-family="JetBrains Mono,Fira Code,Monospace" font-size="14.00" fill="#008b00">[.]</text>
</g>
<!-- ParsePatch&#45;&gt;ParsePre -->
<g id="edge7" class="edge">
<title>ParsePatch&#45;&gt;ParsePre</title>
<path fill="none" stroke="black" d="M1016.44,-170C1052.08,-170 1106.58,-170 1153.91,-170 1153.91,-170 1153.91,-170 1501.54,-170 1561.98,-170 1629.43,-190.95 1670.65,-206.25"/>
<polygon fill="black" stroke="black" points="1669.45,-209.54 1680.04,-209.81 1671.93,-202.99 1669.45,-209.54"/>
<text text-anchor="middle" x="1328.85" y="-173.8" font-family="JetBrains Mono,Fira Code,Monospace" font-size="14.00">[a&#45;zA&#45;Z]</text>
</g>
<!-- ParsePatch&#45;&gt;ParsePatch -->
<g id="edge5" class="edge">
<title>ParsePatch&#45;&gt;ParsePatch</title>
<path fill="none" stroke="black" d="M962.39,-206.56C962.62,-218.08 967.49,-227.17 977.01,-227.17 983.56,-227.17 987.9,-222.87 990.06,-216.45"/>
<polygon fill="black" stroke="black" points="993.51,-216.99 991.63,-206.56 986.6,-215.89 993.51,-216.99"/>
<text text-anchor="middle" x="977.01" y="-230.97" font-family="JetBrains Mono,Fira Code,Monospace" font-size="14.00">[0&#45;9]</text>
</g>
</g>
</svg>
