<svg class="railroad-diagram" width="893" height="393" viewBox="0 0 893 393" xmlns="http://www.w3.org/2000/svg" xmlns:xlink="http://www.w3.org/1999/xlink">
<g transform="translate(.5 .5)">
<g>
<path d="M20 38v20m10 -20v20m-10 -10h20"></path>
</g>
<path d="M40 48h10"></path>
<g>
<path d="M50 48h0"></path>
<path d="M50 48h10"></path>
<g>
<path d="M60 48h10"></path>
<path d="M823 48h10"></path>
<g>
<path d="M70 48h0"></path>
<path d="M215 48h0"></path>
<path d="M70 48h20"></path>
<g>
<path d="M90 48h105"></path>
</g>
<path d="M195 48h20"></path>
<path d="M70 48a10 10 0 0 1 10 10v0a10 10 0 0 0 10 10"></path>
<g class="non-terminal ">
<path d="M90 68h0"></path>
<path d="M195 68h0"></path>
<rect x="90" y="57" width="105" height="22"></rect>
<text x="142.5" y="72">whitespace</text>
</g>
<path d="M195 68a10 10 0 0 0 10 -10v0a10 10 0 0 1 10 -10"></path>
</g>
<g>
<path d="M215 48h0"></path>
<path d="M283.5 48h0"></path>
<path d="M215 48h20"></path>
<g>
<path d="M235 48h28.5"></path>
</g>
<path d="M263.5 48h20"></path>
<path d="M215 48a10 10 0 0 1 10 10v0a10 10 0 0 0 10 10"></path>
<g class="terminal ">
<path d="M235 68h0"></path>
<path d="M263.5 68h0"></path>
<rect x="235" y="57" width="28.5" height="22" rx="10" ry="10"></rect>
<text x="249.25" y="72">v</text>
</g>
<path d="M263.5 68a10 10 0 0 0 10 -10v0a10 10 0 0 1 10 -10"></path>
<path d="M215 48a10 10 0 0 1 10 10v30a10 10 0 0 0 10 10"></path>
<g class="terminal ">
<path d="M235 98h0"></path>
<path d="M263.5 98h0"></path>
<rect x="235" y="87" width="28.5" height="22" rx="10" ry="10"></rect>
<text x="249.25" y="102">V</text>
</g>
<path d="M263.5 98a10 10 0 0 0 10 -10v-30a10 10 0 0 1 10 -10"></path>
</g>
<g>
<path d="M283.5 48h0"></path>
<path d="M428.5 48h0"></path>
<path d="M283.5 48h20"></path>
<g>
<path d="M303.5 48h105"></path>
</g>
<path d="M408.5 48h20"></path>
<path d="M283.5 48a10 10 0 0 1 10 10v0a10 10 0 0 0 10 10"></path>
<g class="non-terminal ">
<path d="M303.5 68h0"></path>
<path d="M408.5 68h0"></path>
<rect x="303.5" y="57" width="105" height="22"></rect>
<text x="356" y="72">whitespace</text>
</g>
<path d="M408.5 68a10 10 0 0 0 10 -10v0a10 10 0 0 1 10 -10"></path>
</g>
<path d="M428.5 48h10"></path>
<g class="non-terminal ">
<path d="M438.5 48h0"></path>
<path d="M501 48h0"></path>
<rect x="438.5" y="37" width="62.5" height="22"></rect>
<text x="469.75" y="52">major</text>
</g>
<path d="M501 48h10"></path>
<g>
<path d="M511 48h0"></path>
<path d="M823 48h0"></path>
<path d="M511 48a10 10 0 0 0 10 -10v-8a10 10 0 0 1 10 -10"></path>
<g>
<path d="M531 20h272"></path>
</g>
<path d="M803 20a10 10 0 0 1 10 10v8a10 10 0 0 0 10 10"></path>
<path d="M511 48h20"></path>
<g>
<path d="M531 48h0"></path>
<path d="M803 48h0"></path>
<g class="terminal ">
<path d="M531 48h0"></path>
<path d="M559.5 48h0"></path>
<rect x="531" y="37" width="28.5" height="22" rx="10" ry="10"></rect>
<text x="545.25" y="52">.</text>
</g>
<path d="M559.5 48h10"></path>
<path d="M569.5 48h10"></path>
<g class="non-terminal ">
<path d="M579.5 48h0"></path>
<path d="M642 48h0"></path>
<rect x="579.5" y="37" width="62.5" height="22"></rect>
<text x="610.75" y="52">minor</text>
</g>
<path d="M642 48h10"></path>
<g>
<path d="M652 48h0"></path>
<path d="M803 48h0"></path>
<path d="M652 48a10 10 0 0 0 10 -10v0a10 10 0 0 1 10 -10"></path>
<g>
<path d="M672 28h111"></path>
</g>
<path d="M783 28a10 10 0 0 1 10 10v0a10 10 0 0 0 10 10"></path>
<path d="M652 48h20"></path>
<g>
<path d="M672 48h0"></path>
<path d="M783 48h0"></path>
<g class="terminal ">
<path d="M672 48h0"></path>
<path d="M700.5 48h0"></path>
<rect x="672" y="37" width="28.5" height="22" rx="10" ry="10"></rect>
<text x="686.25" y="52">.</text>
</g>
<path d="M700.5 48h10"></path>
<path d="M710.5 48h10"></path>
<g class="non-terminal ">
<path d="M720.5 48h0"></path>
<path d="M783 48h0"></path>
<rect x="720.5" y="37" width="62.5" height="22"></rect>
<text x="751.75" y="52">patch</text>
</g>
</g>
<path d="M783 48h20"></path>
</g>
</g>
<path d="M803 48h20"></path>
</g>
</g>
<path d="M833 48a10 10 0 0 1 10 10v49a10 10 0 0 1 -10 10h-773a10 10 0 0 0 -10 10v8a10 10 0 0 0 10 10"></path>
<g>
<path d="M60 145h167"></path>
<path d="M666 145h167"></path>
<path d="M227 145a10 10 0 0 0 10 -10v0a10 10 0 0 1 10 -10"></path>
<g>
<path d="M247 125h399"></path>
</g>
<path d="M646 125a10 10 0 0 1 10 10v0a10 10 0 0 0 10 10"></path>
<path d="M227 145h20"></path>
<g>
<path d="M247 145h0"></path>
<path d="M646 145h0"></path>
<g>
<path d="M247 145h0"></path>
<path d="M315.5 145h0"></path>
<path d="M247 145h20"></path>
<g class="terminal ">
<path d="M267 145h0"></path>
<path d="M295.5 145h0"></path>
<rect x="267" y="134" width="28.5" height="22" rx="10" ry="10"></rect>
<text x="281.25" y="149">-</text>
</g>
<path d="M295.5 145h20"></path>
<path d="M247 145a10 10 0 0 1 10 10v10a10 10 0 0 0 10 10"></path>
<g class="terminal ">
<path d="M267 175h0"></path>
<path d="M295.5 175h0"></path>
<rect x="267" y="164" width="28.5" height="22" rx="10" ry="10"></rect>
<text x="281.25" y="179">.</text>
</g>
<path d="M295.5 175a10 10 0 0 0 10 -10v-10a10 10 0 0 1 10 -10"></path>
</g>
<path d="M315.5 145h10"></path>
<g>
<path d="M325.5 145h0"></path>
<path d="M459 145h0"></path>
<path d="M325.5 145h10"></path>
<g class="non-terminal ">
<path d="M335.5 145h0"></path>
<path d="M449 145h0"></path>
<rect x="335.5" y="134" width="113.5" height="22"></rect>
<text x="392.25" y="149">pre-release</text>
</g>
<path d="M449 145h10"></path>
<path d="M335.5 145a10 10 0 0 0 -10 10v10a10 10 0 0 0 10 10"></path>
<g>
<path d="M335.5 175h22.5"></path>
<path d="M426.5 175h22.5"></path>
<path d="M358 175h20"></path>
<g class="terminal ">
<path d="M378 175h0"></path>
<path d="M406.5 175h0"></path>
<rect x="378" y="164" width="28.5" height="22" rx="10" ry="10"></rect>
<text x="392.25" y="179">-</text>
</g>
<path d="M406.5 175h20"></path>
<path d="M358 175a10 10 0 0 1 10 10v10a10 10 0 0 0 10 10"></path>
<g class="terminal ">
<path d="M378 205h0"></path>
<path d="M406.5 205h0"></path>
<rect x="378" y="194" width="28.5" height="22" rx="10" ry="10"></rect>
<text x="392.25" y="209">.</text>
</g>
<path d="M406.5 205a10 10 0 0 0 10 -10v-10a10 10 0 0 1 10 -10"></path>
</g>
<path d="M449 175a10 10 0 0 0 10 -10v-10a10 10 0 0 0 -10 -10"></path>
</g>
<path d="M459 145h10"></path>
<g>
<path d="M469 145h0"></path>
<path d="M646 145h0"></path>
<path d="M469 145h20"></path>
<g>
<path d="M489 145h0"></path>
<path d="M626 145h0"></path>
<g class="terminal ">
<path d="M489 145h0"></path>
<path d="M517.5 145h0"></path>
<rect x="489" y="134" width="28.5" height="22" rx="10" ry="10"></rect>
<text x="503.25" y="149">+</text>
</g>
<path d="M517.5 145h10"></path>
<path d="M527.5 145h10"></path>
<g>
<path d="M537.5 145h0"></path>
<path d="M626 145h0"></path>
<path d="M537.5 145h10"></path>
<g class="non-terminal ">
<path d="M547.5 145h3"></path>
<path d="M613 145h3"></path>
<rect x="550.5" y="134" width="62.5" height="22"></rect>
<text x="581.75" y="149">build</text>
</g>
<path d="M616 145h10"></path>
<path d="M547.5 145a10 10 0 0 0 -10 10v10a10 10 0 0 0 10 10"></path>
<g>
<path d="M547.5 175h0"></path>
<path d="M616 175h0"></path>
<path d="M547.5 175h20"></path>
<g class="terminal ">
<path d="M567.5 175h0"></path>
<path d="M596 175h0"></path>
<rect x="567.5" y="164" width="28.5" height="22" rx="10" ry="10"></rect>
<text x="581.75" y="179">-</text>
</g>
<path d="M596 175h20"></path>
<path d="M547.5 175a10 10 0 0 1 10 10v10a10 10 0 0 0 10 10"></path>
<g class="terminal ">
<path d="M567.5 205h0"></path>
<path d="M596 205h0"></path>
<rect x="567.5" y="194" width="28.5" height="22" rx="10" ry="10"></rect>
<text x="581.75" y="209">.</text>
</g>
<path d="M596 205a10 10 0 0 0 10 -10v-10a10 10 0 0 1 10 -10"></path>
</g>
<path d="M616 175a10 10 0 0 0 10 -10v-10a10 10 0 0 0 -10 -10"></path>
</g>
</g>
<path d="M626 145h20"></path>
<path d="M469 145a10 10 0 0 1 10 10v59a10 10 0 0 0 10 10"></path>
<g>
<path d="M489 224h137"></path>
</g>
<path d="M626 224a10 10 0 0 0 10 -10v-59a10 10 0 0 1 10 -10"></path>
</g>
</g>
<path d="M646 145h20"></path>
<path d="M227 145a10 10 0 0 1 10 10v108a10 10 0 0 0 10 10"></path>
<g>
<path d="M247 273h105.5"></path>
<path d="M540.5 273h105.5"></path>
<g>
<path d="M352.5 273h0"></path>
<path d="M421 273h0"></path>
<path d="M352.5 273a10 10 0 0 0 10 -10v-10a10 10 0 0 1 10 -10"></path>
<g class="terminal ">
<path d="M372.5 243h0"></path>
<path d="M401 243h0"></path>
<rect x="372.5" y="232" width="28.5" height="22" rx="10" ry="10"></rect>
<text x="386.75" y="247">-</text>
</g>
<path d="M401 243a10 10 0 0 1 10 10v10a10 10 0 0 0 10 10"></path>
<path d="M352.5 273h20"></path>
<g class="terminal ">
<path d="M372.5 273h0"></path>
<path d="M401 273h0"></path>
<rect x="372.5" y="262" width="28.5" height="22" rx="10" ry="10"></rect>
<text x="386.75" y="277">.</text>
</g>
<path d="M401 273h20"></path>
<path d="M352.5 273a10 10 0 0 1 10 10v10a10 10 0 0 0 10 10"></path>
<g class="terminal ">
<path d="M372.5 303h0"></path>
<path d="M401 303h0"></path>
<rect x="372.5" y="292" width="28.5" height="22" rx="10" ry="10"></rect>
<text x="386.75" y="307">+</text>
</g>
<path d="M401 303a10 10 0 0 0 10 -10v-10a10 10 0 0 1 10 -10"></path>
</g>
<g>
<path d="M421 273h0"></path>
<path d="M540.5 273h0"></path>
<path d="M421 273h20"></path>
<g class="terminal ">
<path d="M441 273h8.5"></path>
<path d="M512 273h8.5"></path>
<rect x="449.5" y="262" width="62.5" height="22" rx="10" ry="10"></rect>
<text x="480.75" y="277">Final</text>
</g>
<path d="M520.5 273h20"></path>
<path d="M421 273a10 10 0 0 1 10 10v10a10 10 0 0 0 10 10"></path>
<g class="terminal ">
<path d="M441 303h0"></path>
<path d="M520.5 303h0"></path>
<rect x="441" y="292" width="79.5" height="22" rx="10" ry="10"></rect>
<text x="480.75" y="307">Release</text>
</g>
<path d="M520.5 303a10 10 0 0 0 10 -10v-10a10 10 0 0 1 10 -10"></path>
</g>
</g>
<path d="M646 273a10 10 0 0 0 10 -10v-108a10 10 0 0 1 10 -10"></path>
</g>
<path d="M833 145a10 10 0 0 1 10 10v157a10 10 0 0 1 -10 10h-773a10 10 0 0 0 -10 10v0a10 10 0 0 0 10 10"></path>
<g>
<path d="M60 342h314"></path>
<path d="M519 342h314"></path>
<path d="M374 342h20"></path>
<g>
<path d="M394 342h105"></path>
</g>
<path d="M499 342h20"></path>
<path d="M374 342a10 10 0 0 1 10 10v0a10 10 0 0 0 10 10"></path>
<g class="non-terminal ">
<path d="M394 362h0"></path>
<path d="M499 362h0"></path>
<rect x="394" y="351" width="105" height="22"></rect>
<text x="446.5" y="366">whitespace</text>
</g>
<path d="M499 362a10 10 0 0 0 10 -10v0a10 10 0 0 1 10 -10"></path>
</g>
<path d="M833 342h10"></path>
<path d="M843 342h0"></path>
</g>
<path d="M843 342h10"></path>
<path d="M 853 342 h 20 m -10 -10 v 20 m 10 -20 v 20"></path>
</g>
<style>
	svg {
		background-color: hsl(30,20%,95%);
	}
	path {
		stroke-width: 3;
		stroke: black;
		fill: rgba(0,0,0,0);
	}
	text {
		font: bold 14px monospace;
		text-anchor: middle;
		white-space: pre;
	}
	text.diagram-text {
		font-size: 12px;
	}
	text.diagram-arrow {
		font-size: 16px;
	}
	text.label {
		text-anchor: start;
	}
	text.comment {
		font: italic 12px monospace;
	}
	g.non-terminal text {
		/&#42;font-style: italic;&#42;/
	}
	rect {
		stroke-width: 3;
		stroke: black;
		fill: hsl(120,100%,90%);
	}
	rect.group-box {
		stroke: gray;
		stroke-dasharray: 10 5;
		fill: none;
	}
	path.diagram-text {
		stroke-width: 3;
		stroke: black;
		fill: white;
		cursor: help;
	}
	g.diagram-text:hover path.diagram-text {
		fill: #eee;
	}</style>
</svg>
