<svg class="railroad-diagram" width="679.5" height="363" viewBox="0 0 679.5 363" xmlns="http://www.w3.org/2000/svg" xmlns:xlink="http://www.w3.org/1999/xlink">
<g transform="translate(.5 .5)">
<g>
<path d="M20 38v20m10 -20v20m-10 -10h20"></path>
</g>
<path d="M40 48h10"></path>
<g>
<path d="M50 48h0"></path>
<path d="M50 48h10"></path>
<g>
<path d="M60 48h10"></path>
<path d="M609.5 48h10"></path>
<g>
<path d="M70 48h0"></path>
<path d="M215 48h0"></path>
<path d="M70 48h20"></path>
<g>
<path d="M90 48h105"></path>
</g>
<path d="M195 48h20"></path>
<path d="M70 48a10 10 0 0 1 10 10v0a10 10 0 0 0 10 10"></path>
<g class="non-terminal ">
<path d="M90 68h0"></path>
<path d="M195 68h0"></path>
<rect x="90" y="57" width="105" height="22"></rect>
<text x="142.5" y="72">whitespace</text>
</g>
<path d="M195 68a10 10 0 0 0 10 -10v0a10 10 0 0 1 10 -10"></path>
</g>
<path d="M215 48h10"></path>
<g class="non-terminal ">
<path d="M225 48h0"></path>
<path d="M287.5 48h0"></path>
<rect x="225" y="37" width="62.5" height="22"></rect>
<text x="256.25" y="52">major</text>
</g>
<path d="M287.5 48h10"></path>
<g>
<path d="M297.5 48h0"></path>
<path d="M609.5 48h0"></path>
<path d="M297.5 48a10 10 0 0 0 10 -10v-8a10 10 0 0 1 10 -10"></path>
<g>
<path d="M317.5 20h272"></path>
</g>
<path d="M589.5 20a10 10 0 0 1 10 10v8a10 10 0 0 0 10 10"></path>
<path d="M297.5 48h20"></path>
<g>
<path d="M317.5 48h0"></path>
<path d="M589.5 48h0"></path>
<g class="terminal ">
<path d="M317.5 48h0"></path>
<path d="M346 48h0"></path>
<rect x="317.5" y="37" width="28.5" height="22" rx="10" ry="10"></rect>
<text x="331.75" y="52">.</text>
</g>
<path d="M346 48h10"></path>
<path d="M356 48h10"></path>
<g class="non-terminal ">
<path d="M366 48h0"></path>
<path d="M428.5 48h0"></path>
<rect x="366" y="37" width="62.5" height="22"></rect>
<text x="397.25" y="52">minor</text>
</g>
<path d="M428.5 48h10"></path>
<g>
<path d="M438.5 48h0"></path>
<path d="M589.5 48h0"></path>
<path d="M438.5 48a10 10 0 0 0 10 -10v0a10 10 0 0 1 10 -10"></path>
<g>
<path d="M458.5 28h111"></path>
</g>
<path d="M569.5 28a10 10 0 0 1 10 10v0a10 10 0 0 0 10 10"></path>
<path d="M438.5 48h20"></path>
<g>
<path d="M458.5 48h0"></path>
<path d="M569.5 48h0"></path>
<g class="terminal ">
<path d="M458.5 48h0"></path>
<path d="M487 48h0"></path>
<rect x="458.5" y="37" width="28.5" height="22" rx="10" ry="10"></rect>
<text x="472.75" y="52">.</text>
</g>
<path d="M487 48h10"></path>
<path d="M497 48h10"></path>
<g class="non-terminal ">
<path d="M507 48h0"></path>
<path d="M569.5 48h0"></path>
<rect x="507" y="37" width="62.5" height="22"></rect>
<text x="538.25" y="52">patch</text>
</g>
</g>
<path d="M569.5 48h20"></path>
</g>
</g>
<path d="M589.5 48h20"></path>
</g>
</g>
<path d="M619.5 48a10 10 0 0 1 10 10v19a10 10 0 0 1 -10 10h-559.5a10 10 0 0 0 -10 10v8a10 10 0 0 0 10 10"></path>
<g>
<path d="M60 115h60.25"></path>
<path d="M559.25 115h60.25"></path>
<path d="M120.25 115a10 10 0 0 0 10 -10v0a10 10 0 0 1 10 -10"></path>
<g>
<path d="M140.25 95h399"></path>
</g>
<path d="M539.25 95a10 10 0 0 1 10 10v0a10 10 0 0 0 10 10"></path>
<path d="M120.25 115h20"></path>
<g>
<path d="M140.25 115h0"></path>
<path d="M539.25 115h0"></path>
<g>
<path d="M140.25 115h0"></path>
<path d="M208.75 115h0"></path>
<path d="M140.25 115h20"></path>
<g class="terminal ">
<path d="M160.25 115h0"></path>
<path d="M188.75 115h0"></path>
<rect x="160.25" y="104" width="28.5" height="22" rx="10" ry="10"></rect>
<text x="174.5" y="119">-</text>
</g>
<path d="M188.75 115h20"></path>
<path d="M140.25 115a10 10 0 0 1 10 10v10a10 10 0 0 0 10 10"></path>
<g class="terminal ">
<path d="M160.25 145h0"></path>
<path d="M188.75 145h0"></path>
<rect x="160.25" y="134" width="28.5" height="22" rx="10" ry="10"></rect>
<text x="174.5" y="149">.</text>
</g>
<path d="M188.75 145a10 10 0 0 0 10 -10v-10a10 10 0 0 1 10 -10"></path>
</g>
<path d="M208.75 115h10"></path>
<g>
<path d="M218.75 115h0"></path>
<path d="M352.25 115h0"></path>
<path d="M218.75 115h10"></path>
<g class="non-terminal ">
<path d="M228.75 115h0"></path>
<path d="M342.25 115h0"></path>
<rect x="228.75" y="104" width="113.5" height="22"></rect>
<text x="285.5" y="119">pre-release</text>
</g>
<path d="M342.25 115h10"></path>
<path d="M228.75 115a10 10 0 0 0 -10 10v10a10 10 0 0 0 10 10"></path>
<g>
<path d="M228.75 145h22.5"></path>
<path d="M319.75 145h22.5"></path>
<path d="M251.25 145h20"></path>
<g class="terminal ">
<path d="M271.25 145h0"></path>
<path d="M299.75 145h0"></path>
<rect x="271.25" y="134" width="28.5" height="22" rx="10" ry="10"></rect>
<text x="285.5" y="149">-</text>
</g>
<path d="M299.75 145h20"></path>
<path d="M251.25 145a10 10 0 0 1 10 10v10a10 10 0 0 0 10 10"></path>
<g class="terminal ">
<path d="M271.25 175h0"></path>
<path d="M299.75 175h0"></path>
<rect x="271.25" y="164" width="28.5" height="22" rx="10" ry="10"></rect>
<text x="285.5" y="179">.</text>
</g>
<path d="M299.75 175a10 10 0 0 0 10 -10v-10a10 10 0 0 1 10 -10"></path>
</g>
<path d="M342.25 145a10 10 0 0 0 10 -10v-10a10 10 0 0 0 -10 -10"></path>
</g>
<path d="M352.25 115h10"></path>
<g>
<path d="M362.25 115h0"></path>
<path d="M539.25 115h0"></path>
<path d="M362.25 115h20"></path>
<g>
<path d="M382.25 115h0"></path>
<path d="M519.25 115h0"></path>
<g class="terminal ">
<path d="M382.25 115h0"></path>
<path d="M410.75 115h0"></path>
<rect x="382.25" y="104" width="28.5" height="22" rx="10" ry="10"></rect>
<text x="396.5" y="119">+</text>
</g>
<path d="M410.75 115h10"></path>
<path d="M420.75 115h10"></path>
<g>
<path d="M430.75 115h0"></path>
<path d="M519.25 115h0"></path>
<path d="M430.75 115h10"></path>
<g class="non-terminal ">
<path d="M440.75 115h3"></path>
<path d="M506.25 115h3"></path>
<rect x="443.75" y="104" width="62.5" height="22"></rect>
<text x="475" y="119">build</text>
</g>
<path d="M509.25 115h10"></path>
<path d="M440.75 115a10 10 0 0 0 -10 10v10a10 10 0 0 0 10 10"></path>
<g>
<path d="M440.75 145h0"></path>
<path d="M509.25 145h0"></path>
<path d="M440.75 145h20"></path>
<g class="terminal ">
<path d="M460.75 145h0"></path>
<path d="M489.25 145h0"></path>
<rect x="460.75" y="134" width="28.5" height="22" rx="10" ry="10"></rect>
<text x="475" y="149">-</text>
</g>
<path d="M489.25 145h20"></path>
<path d="M440.75 145a10 10 0 0 1 10 10v10a10 10 0 0 0 10 10"></path>
<g class="terminal ">
<path d="M460.75 175h0"></path>
<path d="M489.25 175h0"></path>
<rect x="460.75" y="164" width="28.5" height="22" rx="10" ry="10"></rect>
<text x="475" y="179">.</text>
</g>
<path d="M489.25 175a10 10 0 0 0 10 -10v-10a10 10 0 0 1 10 -10"></path>
</g>
<path d="M509.25 145a10 10 0 0 0 10 -10v-10a10 10 0 0 0 -10 -10"></path>
</g>
</g>
<path d="M519.25 115h20"></path>
<path d="M362.25 115a10 10 0 0 1 10 10v59a10 10 0 0 0 10 10"></path>
<g>
<path d="M382.25 194h137"></path>
</g>
<path d="M519.25 194a10 10 0 0 0 10 -10v-59a10 10 0 0 1 10 -10"></path>
</g>
</g>
<path d="M539.25 115h20"></path>
<path d="M120.25 115a10 10 0 0 1 10 10v108a10 10 0 0 0 10 10"></path>
<g>
<path d="M140.25 243h105.5"></path>
<path d="M433.75 243h105.5"></path>
<g>
<path d="M245.75 243h0"></path>
<path d="M314.25 243h0"></path>
<path d="M245.75 243a10 10 0 0 0 10 -10v-10a10 10 0 0 1 10 -10"></path>
<g class="terminal ">
<path d="M265.75 213h0"></path>
<path d="M294.25 213h0"></path>
<rect x="265.75" y="202" width="28.5" height="22" rx="10" ry="10"></rect>
<text x="280" y="217">-</text>
</g>
<path d="M294.25 213a10 10 0 0 1 10 10v10a10 10 0 0 0 10 10"></path>
<path d="M245.75 243h20"></path>
<g class="terminal ">
<path d="M265.75 243h0"></path>
<path d="M294.25 243h0"></path>
<rect x="265.75" y="232" width="28.5" height="22" rx="10" ry="10"></rect>
<text x="280" y="247">.</text>
</g>
<path d="M294.25 243h20"></path>
<path d="M245.75 243a10 10 0 0 1 10 10v10a10 10 0 0 0 10 10"></path>
<g class="terminal ">
<path d="M265.75 273h0"></path>
<path d="M294.25 273h0"></path>
<rect x="265.75" y="262" width="28.5" height="22" rx="10" ry="10"></rect>
<text x="280" y="277">+</text>
</g>
<path d="M294.25 273a10 10 0 0 0 10 -10v-10a10 10 0 0 1 10 -10"></path>
</g>
<g>
<path d="M314.25 243h0"></path>
<path d="M433.75 243h0"></path>
<path d="M314.25 243h20"></path>
<g class="terminal ">
<path d="M334.25 243h8.5"></path>
<path d="M405.25 243h8.5"></path>
<rect x="342.75" y="232" width="62.5" height="22" rx="10" ry="10"></rect>
<text x="374" y="247">Final</text>
</g>
<path d="M413.75 243h20"></path>
<path d="M314.25 243a10 10 0 0 1 10 10v10a10 10 0 0 0 10 10"></path>
<g class="terminal ">
<path d="M334.25 273h0"></path>
<path d="M413.75 273h0"></path>
<rect x="334.25" y="262" width="79.5" height="22" rx="10" ry="10"></rect>
<text x="374" y="277">Release</text>
</g>
<path d="M413.75 273a10 10 0 0 0 10 -10v-10a10 10 0 0 1 10 -10"></path>
</g>
</g>
<path d="M539.25 243a10 10 0 0 0 10 -10v-108a10 10 0 0 1 10 -10"></path>
</g>
<path d="M619.5 115a10 10 0 0 1 10 10v157a10 10 0 0 1 -10 10h-559.5a10 10 0 0 0 -10 10v0a10 10 0 0 0 10 10"></path>
<g>
<path d="M60 312h207.25"></path>
<path d="M412.25 312h207.25"></path>
<path d="M267.25 312h20"></path>
<g>
<path d="M287.25 312h105"></path>
</g>
<path d="M392.25 312h20"></path>
<path d="M267.25 312a10 10 0 0 1 10 10v0a10 10 0 0 0 10 10"></path>
<g class="non-terminal ">
<path d="M287.25 332h0"></path>
<path d="M392.25 332h0"></path>
<rect x="287.25" y="321" width="105" height="22"></rect>
<text x="339.75" y="336">whitespace</text>
</g>
<path d="M392.25 332a10 10 0 0 0 10 -10v0a10 10 0 0 1 10 -10"></path>
</g>
<path d="M619.5 312h10"></path>
<path d="M629.5 312h0"></path>
</g>
<path d="M629.5 312h10"></path>
<path d="M 639.5 312 h 20 m -10 -10 v 20 m 10 -20 v 20"></path>
</g>
<style>
	svg {
		background-color: hsl(30,20%,95%);
	}
	path {
		stroke-width: 3;
		stroke: black;
		fill: rgba(0,0,0,0);
	}
	text {
		font: bold 14px monospace;
		text-anchor: middle;
		white-space: pre;
	}
	text.diagram-text {
		font-size: 12px;
	}
	text.diagram-arrow {
		font-size: 16px;
	}
	text.label {
		text-anchor: start;
	}
	text.comment {
		font: italic 12px monospace;
	}
	g.non-terminal text {
		/&#42;font-style: italic;&#42;/
	}
	rect {
		stroke-width: 3;
		stroke: black;
		fill: hsl(120,100%,90%);
	}
	rect.group-box {
		stroke: gray;
		stroke-dasharray: 10 5;
		fill: none;
	}
	path.diagram-text {
		stroke-width: 3;
		stroke: black;
		fill: white;
		cursor: help;
	}
	g.diagram-text:hover path.diagram-text {
		fill: #eee;
	}</style>
</svg>
