<svg class="railroad-diagram" width="1220.5" height="241" viewBox="0 0 1220.5 241" xmlns="http://www.w3.org/2000/svg" xmlns:xlink="http://www.w3.org/1999/xlink">
<g transform="translate(.5 .5)">
<g>
<path d="M20 100v20m10 -20v20m-10 -10h20"></path>
</g>
<g>
<path d="M40 110h0"></path>
<path d="M193.5 110h0"></path>
<path d="M40 110h20"></path>
<g>
<path d="M60 110h113.5"></path>
</g>
<path d="M173.5 110h20"></path>
<path d="M40 110a10 10 0 0 1 10 10v0a10 10 0 0 0 10 10"></path>
<g class="non-terminal ">
<path d="M60 130h0"></path>
<path d="M173.5 130h0"></path>
<rect x="60" y="119" width="113.5" height="22"></rect>
<text x="116.75" y="134">white space</text>
</g>
<path d="M173.5 130a10 10 0 0 0 10 -10v0a10 10 0 0 1 10 -10"></path>
</g>
<path d="M193.5 110h10"></path>
<g class="non-terminal ">
<path d="M203.5 110h0"></path>
<path d="M266 110h0"></path>
<rect x="203.5" y="99" width="62.5" height="22"></rect>
<text x="234.75" y="114">major</text>
</g>
<path d="M266 110h10"></path>
<g>
<path d="M276 110h0"></path>
<path d="M588 110h0"></path>
<path d="M276 110a10 10 0 0 0 10 -10v-8a10 10 0 0 1 10 -10"></path>
<g>
<path d="M296 82h272"></path>
</g>
<path d="M568 82a10 10 0 0 1 10 10v8a10 10 0 0 0 10 10"></path>
<path d="M276 110h20"></path>
<g>
<path d="M296 110h0"></path>
<path d="M568 110h0"></path>
<g class="terminal ">
<path d="M296 110h0"></path>
<path d="M324.5 110h0"></path>
<rect x="296" y="99" width="28.5" height="22" rx="10" ry="10"></rect>
<text x="310.25" y="114">.</text>
</g>
<path d="M324.5 110h10"></path>
<path d="M334.5 110h10"></path>
<g class="non-terminal ">
<path d="M344.5 110h0"></path>
<path d="M407 110h0"></path>
<rect x="344.5" y="99" width="62.5" height="22"></rect>
<text x="375.75" y="114">minor</text>
</g>
<path d="M407 110h10"></path>
<g>
<path d="M417 110h0"></path>
<path d="M568 110h0"></path>
<path d="M417 110a10 10 0 0 0 10 -10v0a10 10 0 0 1 10 -10"></path>
<g>
<path d="M437 90h111"></path>
</g>
<path d="M548 90a10 10 0 0 1 10 10v0a10 10 0 0 0 10 10"></path>
<path d="M417 110h20"></path>
<g>
<path d="M437 110h0"></path>
<path d="M548 110h0"></path>
<g class="terminal ">
<path d="M437 110h0"></path>
<path d="M465.5 110h0"></path>
<rect x="437" y="99" width="28.5" height="22" rx="10" ry="10"></rect>
<text x="451.25" y="114">.</text>
</g>
<path d="M465.5 110h10"></path>
<path d="M475.5 110h10"></path>
<g class="non-terminal ">
<path d="M485.5 110h0"></path>
<path d="M548 110h0"></path>
<rect x="485.5" y="99" width="62.5" height="22"></rect>
<text x="516.75" y="114">patch</text>
</g>
</g>
<path d="M548 110h20"></path>
</g>
</g>
<path d="M568 110h20"></path>
</g>
<g>
<path d="M588 110h0"></path>
<path d="M1027 110h0"></path>
<path d="M588 110a10 10 0 0 0 10 -10v-29a10 10 0 0 1 10 -10"></path>
<g>
<path d="M608 61h105.5"></path>
<path d="M901.5 61h105.5"></path>
<g>
<path d="M713.5 61h0"></path>
<path d="M782 61h0"></path>
<path d="M713.5 61a10 10 0 0 0 10 -10v-10a10 10 0 0 1 10 -10"></path>
<g class="terminal ">
<path d="M733.5 31h0"></path>
<path d="M762 31h0"></path>
<rect x="733.5" y="20" width="28.5" height="22" rx="10" ry="10"></rect>
<text x="747.75" y="35">-</text>
</g>
<path d="M762 31a10 10 0 0 1 10 10v10a10 10 0 0 0 10 10"></path>
<path d="M713.5 61h20"></path>
<g class="terminal ">
<path d="M733.5 61h0"></path>
<path d="M762 61h0"></path>
<rect x="733.5" y="50" width="28.5" height="22" rx="10" ry="10"></rect>
<text x="747.75" y="65">.</text>
</g>
<path d="M762 61h20"></path>
<path d="M713.5 61a10 10 0 0 1 10 10v10a10 10 0 0 0 10 10"></path>
<g class="terminal ">
<path d="M733.5 91h0"></path>
<path d="M762 91h0"></path>
<rect x="733.5" y="80" width="28.5" height="22" rx="10" ry="10"></rect>
<text x="747.75" y="95">+</text>
</g>
<path d="M762 91a10 10 0 0 0 10 -10v-10a10 10 0 0 1 10 -10"></path>
</g>
<g>
<path d="M782 61h0"></path>
<path d="M901.5 61h0"></path>
<path d="M782 61h20"></path>
<g class="terminal ">
<path d="M802 61h8.5"></path>
<path d="M873 61h8.5"></path>
<rect x="810.5" y="50" width="62.5" height="22" rx="10" ry="10"></rect>
<text x="841.75" y="65">Final</text>
</g>
<path d="M881.5 61h20"></path>
<path d="M782 61a10 10 0 0 1 10 10v10a10 10 0 0 0 10 10"></path>
<g class="terminal ">
<path d="M802 91h0"></path>
<path d="M881.5 91h0"></path>
<rect x="802" y="80" width="79.5" height="22" rx="10" ry="10"></rect>
<text x="841.75" y="95">Release</text>
</g>
<path d="M881.5 91a10 10 0 0 0 10 -10v-10a10 10 0 0 1 10 -10"></path>
</g>
</g>
<path d="M1007 61a10 10 0 0 1 10 10v29a10 10 0 0 0 10 10"></path>
<path d="M588 110h20"></path>
<g>
<path d="M608 110h399"></path>
</g>
<path d="M1007 110h20"></path>
<path d="M588 110a10 10 0 0 1 10 10v0a10 10 0 0 0 10 10"></path>
<g>
<path d="M608 130h0"></path>
<path d="M1007 130h0"></path>
<g>
<path d="M608 130h0"></path>
<path d="M676.5 130h0"></path>
<path d="M608 130h20"></path>
<g class="terminal ">
<path d="M628 130h0"></path>
<path d="M656.5 130h0"></path>
<rect x="628" y="119" width="28.5" height="22" rx="10" ry="10"></rect>
<text x="642.25" y="134">-</text>
</g>
<path d="M656.5 130h20"></path>
<path d="M608 130a10 10 0 0 1 10 10v10a10 10 0 0 0 10 10"></path>
<g class="terminal ">
<path d="M628 160h0"></path>
<path d="M656.5 160h0"></path>
<rect x="628" y="149" width="28.5" height="22" rx="10" ry="10"></rect>
<text x="642.25" y="164">.</text>
</g>
<path d="M656.5 160a10 10 0 0 0 10 -10v-10a10 10 0 0 1 10 -10"></path>
</g>
<path d="M676.5 130h10"></path>
<g>
<path d="M686.5 130h0"></path>
<path d="M820 130h0"></path>
<path d="M686.5 130h10"></path>
<g class="non-terminal ">
<path d="M696.5 130h0"></path>
<path d="M810 130h0"></path>
<rect x="696.5" y="119" width="113.5" height="22"></rect>
<text x="753.25" y="134">pre-release</text>
</g>
<path d="M810 130h10"></path>
<path d="M696.5 130a10 10 0 0 0 -10 10v10a10 10 0 0 0 10 10"></path>
<g>
<path d="M696.5 160h22.5"></path>
<path d="M787.5 160h22.5"></path>
<path d="M719 160h20"></path>
<g class="terminal ">
<path d="M739 160h0"></path>
<path d="M767.5 160h0"></path>
<rect x="739" y="149" width="28.5" height="22" rx="10" ry="10"></rect>
<text x="753.25" y="164">-</text>
</g>
<path d="M767.5 160h20"></path>
<path d="M719 160a10 10 0 0 1 10 10v10a10 10 0 0 0 10 10"></path>
<g class="terminal ">
<path d="M739 190h0"></path>
<path d="M767.5 190h0"></path>
<rect x="739" y="179" width="28.5" height="22" rx="10" ry="10"></rect>
<text x="753.25" y="194">.</text>
</g>
<path d="M767.5 190a10 10 0 0 0 10 -10v-10a10 10 0 0 1 10 -10"></path>
</g>
<path d="M810 160a10 10 0 0 0 10 -10v-10a10 10 0 0 0 -10 -10"></path>
</g>
<path d="M820 130h10"></path>
<g>
<path d="M830 130h0"></path>
<path d="M1007 130h0"></path>
<path d="M830 130h20"></path>
<g>
<path d="M850 130h137"></path>
</g>
<path d="M987 130h20"></path>
<path d="M830 130a10 10 0 0 1 10 10v0a10 10 0 0 0 10 10"></path>
<g>
<path d="M850 150h0"></path>
<path d="M987 150h0"></path>
<g class="terminal ">
<path d="M850 150h0"></path>
<path d="M878.5 150h0"></path>
<rect x="850" y="139" width="28.5" height="22" rx="10" ry="10"></rect>
<text x="864.25" y="154">+</text>
</g>
<path d="M878.5 150h10"></path>
<path d="M888.5 150h10"></path>
<g>
<path d="M898.5 150h0"></path>
<path d="M987 150h0"></path>
<path d="M898.5 150h10"></path>
<g class="non-terminal ">
<path d="M908.5 150h3"></path>
<path d="M974 150h3"></path>
<rect x="911.5" y="139" width="62.5" height="22"></rect>
<text x="942.75" y="154">build</text>
</g>
<path d="M977 150h10"></path>
<path d="M908.5 150a10 10 0 0 0 -10 10v10a10 10 0 0 0 10 10"></path>
<g>
<path d="M908.5 180h0"></path>
<path d="M977 180h0"></path>
<path d="M908.5 180h20"></path>
<g class="terminal ">
<path d="M928.5 180h0"></path>
<path d="M957 180h0"></path>
<rect x="928.5" y="169" width="28.5" height="22" rx="10" ry="10"></rect>
<text x="942.75" y="184">-</text>
</g>
<path d="M957 180h20"></path>
<path d="M908.5 180a10 10 0 0 1 10 10v10a10 10 0 0 0 10 10"></path>
<g class="terminal ">
<path d="M928.5 210h0"></path>
<path d="M957 210h0"></path>
<rect x="928.5" y="199" width="28.5" height="22" rx="10" ry="10"></rect>
<text x="942.75" y="214">.</text>
</g>
<path d="M957 210a10 10 0 0 0 10 -10v-10a10 10 0 0 1 10 -10"></path>
</g>
<path d="M977 180a10 10 0 0 0 10 -10v-10a10 10 0 0 0 -10 -10"></path>
</g>
</g>
<path d="M987 150a10 10 0 0 0 10 -10v0a10 10 0 0 1 10 -10"></path>
</g>
</g>
<path d="M1007 130a10 10 0 0 0 10 -10v0a10 10 0 0 1 10 -10"></path>
</g>
<g>
<path d="M1027 110h0"></path>
<path d="M1180.5 110h0"></path>
<path d="M1027 110h20"></path>
<g>
<path d="M1047 110h113.5"></path>
</g>
<path d="M1160.5 110h20"></path>
<path d="M1027 110a10 10 0 0 1 10 10v0a10 10 0 0 0 10 10"></path>
<g class="non-terminal ">
<path d="M1047 130h0"></path>
<path d="M1160.5 130h0"></path>
<rect x="1047" y="119" width="113.5" height="22"></rect>
<text x="1103.75" y="134">white space</text>
</g>
<path d="M1160.5 130a10 10 0 0 0 10 -10v0a10 10 0 0 1 10 -10"></path>
</g>
<path d="M 1180.5 110 h 20 m -10 -10 v 20 m 10 -20 v 20"></path>
</g>
<style>
	svg {
		background-color: hsl(30,20%,95%);
	}
	path {
		stroke-width: 3;
		stroke: black;
		fill: rgba(0,0,0,0);
	}
	text {
		font: bold 14px monospace;
		text-anchor: middle;
		white-space: pre;
	}
	text.diagram-text {
		font-size: 12px;
	}
	text.diagram-arrow {
		font-size: 16px;
	}
	text.label {
		text-anchor: start;
	}
	text.comment {
		font: italic 12px monospace;
	}
	g.non-terminal text {
		/&#42;font-style: italic;&#42;/
	}
	rect {
		stroke-width: 3;
		stroke: black;
		fill: hsl(120,100%,90%);
	}
	rect.group-box {
		stroke: gray;
		stroke-dasharray: 10 5;
		fill: none;
	}
	path.diagram-text {
		stroke-width: 3;
		stroke: black;
		fill: white;
		cursor: help;
	}
	g.diagram-text:hover path.diagram-text {
		fill: #eee;
	}</style>
</svg>
